G75*
%MOIN*%
%OFA0B0*%
%FSLAX25Y25*%
%IPPOS*%
%LPD*%
%AMOC8*
5,1,8,0,0,1.08239X$1,22.5*
%
%ADD10C,0.00000*%
%ADD11R,0.02362X0.01378*%
%ADD12R,0.02362X0.01969*%
%ADD13R,0.06299X0.07087*%
%ADD14R,0.05118X0.05906*%
D10*
X0031028Y0034965D02*
X0038902Y0027091D01*
X0128469Y0027091D01*
X0162917Y0061539D01*
X0398154Y0061539D01*
X0403075Y0066461D01*
X0403075Y0074335D01*
X0398154Y0079256D01*
X0162917Y0079256D01*
X0128469Y0113705D01*
X0038902Y0113705D01*
X0031028Y0105831D01*
X0031028Y0034965D01*
X0105830Y0044807D02*
X0105832Y0044960D01*
X0105838Y0045114D01*
X0105848Y0045267D01*
X0105862Y0045419D01*
X0105880Y0045572D01*
X0105902Y0045723D01*
X0105927Y0045874D01*
X0105957Y0046025D01*
X0105991Y0046175D01*
X0106028Y0046323D01*
X0106069Y0046471D01*
X0106114Y0046617D01*
X0106163Y0046763D01*
X0106216Y0046907D01*
X0106272Y0047049D01*
X0106332Y0047190D01*
X0106396Y0047330D01*
X0106463Y0047468D01*
X0106534Y0047604D01*
X0106609Y0047738D01*
X0106686Y0047870D01*
X0106768Y0048000D01*
X0106852Y0048128D01*
X0106940Y0048254D01*
X0107031Y0048377D01*
X0107125Y0048498D01*
X0107223Y0048616D01*
X0107323Y0048732D01*
X0107427Y0048845D01*
X0107533Y0048956D01*
X0107642Y0049064D01*
X0107754Y0049169D01*
X0107868Y0049270D01*
X0107986Y0049369D01*
X0108105Y0049465D01*
X0108227Y0049558D01*
X0108352Y0049647D01*
X0108479Y0049734D01*
X0108608Y0049816D01*
X0108739Y0049896D01*
X0108872Y0049972D01*
X0109007Y0050045D01*
X0109144Y0050114D01*
X0109283Y0050179D01*
X0109423Y0050241D01*
X0109565Y0050299D01*
X0109708Y0050354D01*
X0109853Y0050405D01*
X0109999Y0050452D01*
X0110146Y0050495D01*
X0110294Y0050534D01*
X0110443Y0050570D01*
X0110593Y0050601D01*
X0110744Y0050629D01*
X0110895Y0050653D01*
X0111048Y0050673D01*
X0111200Y0050689D01*
X0111353Y0050701D01*
X0111506Y0050709D01*
X0111659Y0050713D01*
X0111813Y0050713D01*
X0111966Y0050709D01*
X0112119Y0050701D01*
X0112272Y0050689D01*
X0112424Y0050673D01*
X0112577Y0050653D01*
X0112728Y0050629D01*
X0112879Y0050601D01*
X0113029Y0050570D01*
X0113178Y0050534D01*
X0113326Y0050495D01*
X0113473Y0050452D01*
X0113619Y0050405D01*
X0113764Y0050354D01*
X0113907Y0050299D01*
X0114049Y0050241D01*
X0114189Y0050179D01*
X0114328Y0050114D01*
X0114465Y0050045D01*
X0114600Y0049972D01*
X0114733Y0049896D01*
X0114864Y0049816D01*
X0114993Y0049734D01*
X0115120Y0049647D01*
X0115245Y0049558D01*
X0115367Y0049465D01*
X0115486Y0049369D01*
X0115604Y0049270D01*
X0115718Y0049169D01*
X0115830Y0049064D01*
X0115939Y0048956D01*
X0116045Y0048845D01*
X0116149Y0048732D01*
X0116249Y0048616D01*
X0116347Y0048498D01*
X0116441Y0048377D01*
X0116532Y0048254D01*
X0116620Y0048128D01*
X0116704Y0048000D01*
X0116786Y0047870D01*
X0116863Y0047738D01*
X0116938Y0047604D01*
X0117009Y0047468D01*
X0117076Y0047330D01*
X0117140Y0047190D01*
X0117200Y0047049D01*
X0117256Y0046907D01*
X0117309Y0046763D01*
X0117358Y0046617D01*
X0117403Y0046471D01*
X0117444Y0046323D01*
X0117481Y0046175D01*
X0117515Y0046025D01*
X0117545Y0045874D01*
X0117570Y0045723D01*
X0117592Y0045572D01*
X0117610Y0045419D01*
X0117624Y0045267D01*
X0117634Y0045114D01*
X0117640Y0044960D01*
X0117642Y0044807D01*
X0117640Y0044654D01*
X0117634Y0044500D01*
X0117624Y0044347D01*
X0117610Y0044195D01*
X0117592Y0044042D01*
X0117570Y0043891D01*
X0117545Y0043740D01*
X0117515Y0043589D01*
X0117481Y0043439D01*
X0117444Y0043291D01*
X0117403Y0043143D01*
X0117358Y0042997D01*
X0117309Y0042851D01*
X0117256Y0042707D01*
X0117200Y0042565D01*
X0117140Y0042424D01*
X0117076Y0042284D01*
X0117009Y0042146D01*
X0116938Y0042010D01*
X0116863Y0041876D01*
X0116786Y0041744D01*
X0116704Y0041614D01*
X0116620Y0041486D01*
X0116532Y0041360D01*
X0116441Y0041237D01*
X0116347Y0041116D01*
X0116249Y0040998D01*
X0116149Y0040882D01*
X0116045Y0040769D01*
X0115939Y0040658D01*
X0115830Y0040550D01*
X0115718Y0040445D01*
X0115604Y0040344D01*
X0115486Y0040245D01*
X0115367Y0040149D01*
X0115245Y0040056D01*
X0115120Y0039967D01*
X0114993Y0039880D01*
X0114864Y0039798D01*
X0114733Y0039718D01*
X0114600Y0039642D01*
X0114465Y0039569D01*
X0114328Y0039500D01*
X0114189Y0039435D01*
X0114049Y0039373D01*
X0113907Y0039315D01*
X0113764Y0039260D01*
X0113619Y0039209D01*
X0113473Y0039162D01*
X0113326Y0039119D01*
X0113178Y0039080D01*
X0113029Y0039044D01*
X0112879Y0039013D01*
X0112728Y0038985D01*
X0112577Y0038961D01*
X0112424Y0038941D01*
X0112272Y0038925D01*
X0112119Y0038913D01*
X0111966Y0038905D01*
X0111813Y0038901D01*
X0111659Y0038901D01*
X0111506Y0038905D01*
X0111353Y0038913D01*
X0111200Y0038925D01*
X0111048Y0038941D01*
X0110895Y0038961D01*
X0110744Y0038985D01*
X0110593Y0039013D01*
X0110443Y0039044D01*
X0110294Y0039080D01*
X0110146Y0039119D01*
X0109999Y0039162D01*
X0109853Y0039209D01*
X0109708Y0039260D01*
X0109565Y0039315D01*
X0109423Y0039373D01*
X0109283Y0039435D01*
X0109144Y0039500D01*
X0109007Y0039569D01*
X0108872Y0039642D01*
X0108739Y0039718D01*
X0108608Y0039798D01*
X0108479Y0039880D01*
X0108352Y0039967D01*
X0108227Y0040056D01*
X0108105Y0040149D01*
X0107986Y0040245D01*
X0107868Y0040344D01*
X0107754Y0040445D01*
X0107642Y0040550D01*
X0107533Y0040658D01*
X0107427Y0040769D01*
X0107323Y0040882D01*
X0107223Y0040998D01*
X0107125Y0041116D01*
X0107031Y0041237D01*
X0106940Y0041360D01*
X0106852Y0041486D01*
X0106768Y0041614D01*
X0106686Y0041744D01*
X0106609Y0041876D01*
X0106534Y0042010D01*
X0106463Y0042146D01*
X0106396Y0042284D01*
X0106332Y0042424D01*
X0106272Y0042565D01*
X0106216Y0042707D01*
X0106163Y0042851D01*
X0106114Y0042997D01*
X0106069Y0043143D01*
X0106028Y0043291D01*
X0105991Y0043439D01*
X0105957Y0043589D01*
X0105927Y0043740D01*
X0105902Y0043891D01*
X0105880Y0044042D01*
X0105862Y0044195D01*
X0105848Y0044347D01*
X0105838Y0044500D01*
X0105832Y0044654D01*
X0105830Y0044807D01*
X0083665Y0057602D02*
X0083667Y0057755D01*
X0083673Y0057909D01*
X0083683Y0058062D01*
X0083697Y0058214D01*
X0083715Y0058367D01*
X0083737Y0058518D01*
X0083762Y0058669D01*
X0083792Y0058820D01*
X0083826Y0058970D01*
X0083863Y0059118D01*
X0083904Y0059266D01*
X0083949Y0059412D01*
X0083998Y0059558D01*
X0084051Y0059702D01*
X0084107Y0059844D01*
X0084167Y0059985D01*
X0084231Y0060125D01*
X0084298Y0060263D01*
X0084369Y0060399D01*
X0084444Y0060533D01*
X0084521Y0060665D01*
X0084603Y0060795D01*
X0084687Y0060923D01*
X0084775Y0061049D01*
X0084866Y0061172D01*
X0084960Y0061293D01*
X0085058Y0061411D01*
X0085158Y0061527D01*
X0085262Y0061640D01*
X0085368Y0061751D01*
X0085477Y0061859D01*
X0085589Y0061964D01*
X0085703Y0062065D01*
X0085821Y0062164D01*
X0085940Y0062260D01*
X0086062Y0062353D01*
X0086187Y0062442D01*
X0086314Y0062529D01*
X0086443Y0062611D01*
X0086574Y0062691D01*
X0086707Y0062767D01*
X0086842Y0062840D01*
X0086979Y0062909D01*
X0087118Y0062974D01*
X0087258Y0063036D01*
X0087400Y0063094D01*
X0087543Y0063149D01*
X0087688Y0063200D01*
X0087834Y0063247D01*
X0087981Y0063290D01*
X0088129Y0063329D01*
X0088278Y0063365D01*
X0088428Y0063396D01*
X0088579Y0063424D01*
X0088730Y0063448D01*
X0088883Y0063468D01*
X0089035Y0063484D01*
X0089188Y0063496D01*
X0089341Y0063504D01*
X0089494Y0063508D01*
X0089648Y0063508D01*
X0089801Y0063504D01*
X0089954Y0063496D01*
X0090107Y0063484D01*
X0090259Y0063468D01*
X0090412Y0063448D01*
X0090563Y0063424D01*
X0090714Y0063396D01*
X0090864Y0063365D01*
X0091013Y0063329D01*
X0091161Y0063290D01*
X0091308Y0063247D01*
X0091454Y0063200D01*
X0091599Y0063149D01*
X0091742Y0063094D01*
X0091884Y0063036D01*
X0092024Y0062974D01*
X0092163Y0062909D01*
X0092300Y0062840D01*
X0092435Y0062767D01*
X0092568Y0062691D01*
X0092699Y0062611D01*
X0092828Y0062529D01*
X0092955Y0062442D01*
X0093080Y0062353D01*
X0093202Y0062260D01*
X0093321Y0062164D01*
X0093439Y0062065D01*
X0093553Y0061964D01*
X0093665Y0061859D01*
X0093774Y0061751D01*
X0093880Y0061640D01*
X0093984Y0061527D01*
X0094084Y0061411D01*
X0094182Y0061293D01*
X0094276Y0061172D01*
X0094367Y0061049D01*
X0094455Y0060923D01*
X0094539Y0060795D01*
X0094621Y0060665D01*
X0094698Y0060533D01*
X0094773Y0060399D01*
X0094844Y0060263D01*
X0094911Y0060125D01*
X0094975Y0059985D01*
X0095035Y0059844D01*
X0095091Y0059702D01*
X0095144Y0059558D01*
X0095193Y0059412D01*
X0095238Y0059266D01*
X0095279Y0059118D01*
X0095316Y0058970D01*
X0095350Y0058820D01*
X0095380Y0058669D01*
X0095405Y0058518D01*
X0095427Y0058367D01*
X0095445Y0058214D01*
X0095459Y0058062D01*
X0095469Y0057909D01*
X0095475Y0057755D01*
X0095477Y0057602D01*
X0095475Y0057449D01*
X0095469Y0057295D01*
X0095459Y0057142D01*
X0095445Y0056990D01*
X0095427Y0056837D01*
X0095405Y0056686D01*
X0095380Y0056535D01*
X0095350Y0056384D01*
X0095316Y0056234D01*
X0095279Y0056086D01*
X0095238Y0055938D01*
X0095193Y0055792D01*
X0095144Y0055646D01*
X0095091Y0055502D01*
X0095035Y0055360D01*
X0094975Y0055219D01*
X0094911Y0055079D01*
X0094844Y0054941D01*
X0094773Y0054805D01*
X0094698Y0054671D01*
X0094621Y0054539D01*
X0094539Y0054409D01*
X0094455Y0054281D01*
X0094367Y0054155D01*
X0094276Y0054032D01*
X0094182Y0053911D01*
X0094084Y0053793D01*
X0093984Y0053677D01*
X0093880Y0053564D01*
X0093774Y0053453D01*
X0093665Y0053345D01*
X0093553Y0053240D01*
X0093439Y0053139D01*
X0093321Y0053040D01*
X0093202Y0052944D01*
X0093080Y0052851D01*
X0092955Y0052762D01*
X0092828Y0052675D01*
X0092699Y0052593D01*
X0092568Y0052513D01*
X0092435Y0052437D01*
X0092300Y0052364D01*
X0092163Y0052295D01*
X0092024Y0052230D01*
X0091884Y0052168D01*
X0091742Y0052110D01*
X0091599Y0052055D01*
X0091454Y0052004D01*
X0091308Y0051957D01*
X0091161Y0051914D01*
X0091013Y0051875D01*
X0090864Y0051839D01*
X0090714Y0051808D01*
X0090563Y0051780D01*
X0090412Y0051756D01*
X0090259Y0051736D01*
X0090107Y0051720D01*
X0089954Y0051708D01*
X0089801Y0051700D01*
X0089648Y0051696D01*
X0089494Y0051696D01*
X0089341Y0051700D01*
X0089188Y0051708D01*
X0089035Y0051720D01*
X0088883Y0051736D01*
X0088730Y0051756D01*
X0088579Y0051780D01*
X0088428Y0051808D01*
X0088278Y0051839D01*
X0088129Y0051875D01*
X0087981Y0051914D01*
X0087834Y0051957D01*
X0087688Y0052004D01*
X0087543Y0052055D01*
X0087400Y0052110D01*
X0087258Y0052168D01*
X0087118Y0052230D01*
X0086979Y0052295D01*
X0086842Y0052364D01*
X0086707Y0052437D01*
X0086574Y0052513D01*
X0086443Y0052593D01*
X0086314Y0052675D01*
X0086187Y0052762D01*
X0086062Y0052851D01*
X0085940Y0052944D01*
X0085821Y0053040D01*
X0085703Y0053139D01*
X0085589Y0053240D01*
X0085477Y0053345D01*
X0085368Y0053453D01*
X0085262Y0053564D01*
X0085158Y0053677D01*
X0085058Y0053793D01*
X0084960Y0053911D01*
X0084866Y0054032D01*
X0084775Y0054155D01*
X0084687Y0054281D01*
X0084603Y0054409D01*
X0084521Y0054539D01*
X0084444Y0054671D01*
X0084369Y0054805D01*
X0084298Y0054941D01*
X0084231Y0055079D01*
X0084167Y0055219D01*
X0084107Y0055360D01*
X0084051Y0055502D01*
X0083998Y0055646D01*
X0083949Y0055792D01*
X0083904Y0055938D01*
X0083863Y0056086D01*
X0083826Y0056234D01*
X0083792Y0056384D01*
X0083762Y0056535D01*
X0083737Y0056686D01*
X0083715Y0056837D01*
X0083697Y0056990D01*
X0083683Y0057142D01*
X0083673Y0057295D01*
X0083667Y0057449D01*
X0083665Y0057602D01*
X0037426Y0070398D02*
X0037428Y0070545D01*
X0037434Y0070691D01*
X0037444Y0070837D01*
X0037458Y0070983D01*
X0037476Y0071129D01*
X0037497Y0071274D01*
X0037523Y0071418D01*
X0037553Y0071562D01*
X0037586Y0071704D01*
X0037623Y0071846D01*
X0037664Y0071987D01*
X0037709Y0072126D01*
X0037758Y0072265D01*
X0037810Y0072402D01*
X0037867Y0072537D01*
X0037926Y0072671D01*
X0037990Y0072803D01*
X0038057Y0072933D01*
X0038127Y0073062D01*
X0038201Y0073189D01*
X0038278Y0073313D01*
X0038359Y0073436D01*
X0038443Y0073556D01*
X0038530Y0073674D01*
X0038620Y0073789D01*
X0038713Y0073902D01*
X0038810Y0074013D01*
X0038909Y0074121D01*
X0039011Y0074226D01*
X0039116Y0074328D01*
X0039224Y0074427D01*
X0039335Y0074524D01*
X0039448Y0074617D01*
X0039563Y0074707D01*
X0039681Y0074794D01*
X0039801Y0074878D01*
X0039924Y0074959D01*
X0040048Y0075036D01*
X0040175Y0075110D01*
X0040304Y0075180D01*
X0040434Y0075247D01*
X0040566Y0075311D01*
X0040700Y0075370D01*
X0040835Y0075427D01*
X0040972Y0075479D01*
X0041111Y0075528D01*
X0041250Y0075573D01*
X0041391Y0075614D01*
X0041533Y0075651D01*
X0041675Y0075684D01*
X0041819Y0075714D01*
X0041963Y0075740D01*
X0042108Y0075761D01*
X0042254Y0075779D01*
X0042400Y0075793D01*
X0042546Y0075803D01*
X0042692Y0075809D01*
X0042839Y0075811D01*
X0042986Y0075809D01*
X0043132Y0075803D01*
X0043278Y0075793D01*
X0043424Y0075779D01*
X0043570Y0075761D01*
X0043715Y0075740D01*
X0043859Y0075714D01*
X0044003Y0075684D01*
X0044145Y0075651D01*
X0044287Y0075614D01*
X0044428Y0075573D01*
X0044567Y0075528D01*
X0044706Y0075479D01*
X0044843Y0075427D01*
X0044978Y0075370D01*
X0045112Y0075311D01*
X0045244Y0075247D01*
X0045374Y0075180D01*
X0045503Y0075110D01*
X0045630Y0075036D01*
X0045754Y0074959D01*
X0045877Y0074878D01*
X0045997Y0074794D01*
X0046115Y0074707D01*
X0046230Y0074617D01*
X0046343Y0074524D01*
X0046454Y0074427D01*
X0046562Y0074328D01*
X0046667Y0074226D01*
X0046769Y0074121D01*
X0046868Y0074013D01*
X0046965Y0073902D01*
X0047058Y0073789D01*
X0047148Y0073674D01*
X0047235Y0073556D01*
X0047319Y0073436D01*
X0047400Y0073313D01*
X0047477Y0073189D01*
X0047551Y0073062D01*
X0047621Y0072933D01*
X0047688Y0072803D01*
X0047752Y0072671D01*
X0047811Y0072537D01*
X0047868Y0072402D01*
X0047920Y0072265D01*
X0047969Y0072126D01*
X0048014Y0071987D01*
X0048055Y0071846D01*
X0048092Y0071704D01*
X0048125Y0071562D01*
X0048155Y0071418D01*
X0048181Y0071274D01*
X0048202Y0071129D01*
X0048220Y0070983D01*
X0048234Y0070837D01*
X0048244Y0070691D01*
X0048250Y0070545D01*
X0048252Y0070398D01*
X0048250Y0070251D01*
X0048244Y0070105D01*
X0048234Y0069959D01*
X0048220Y0069813D01*
X0048202Y0069667D01*
X0048181Y0069522D01*
X0048155Y0069378D01*
X0048125Y0069234D01*
X0048092Y0069092D01*
X0048055Y0068950D01*
X0048014Y0068809D01*
X0047969Y0068670D01*
X0047920Y0068531D01*
X0047868Y0068394D01*
X0047811Y0068259D01*
X0047752Y0068125D01*
X0047688Y0067993D01*
X0047621Y0067863D01*
X0047551Y0067734D01*
X0047477Y0067607D01*
X0047400Y0067483D01*
X0047319Y0067360D01*
X0047235Y0067240D01*
X0047148Y0067122D01*
X0047058Y0067007D01*
X0046965Y0066894D01*
X0046868Y0066783D01*
X0046769Y0066675D01*
X0046667Y0066570D01*
X0046562Y0066468D01*
X0046454Y0066369D01*
X0046343Y0066272D01*
X0046230Y0066179D01*
X0046115Y0066089D01*
X0045997Y0066002D01*
X0045877Y0065918D01*
X0045754Y0065837D01*
X0045630Y0065760D01*
X0045503Y0065686D01*
X0045374Y0065616D01*
X0045244Y0065549D01*
X0045112Y0065485D01*
X0044978Y0065426D01*
X0044843Y0065369D01*
X0044706Y0065317D01*
X0044567Y0065268D01*
X0044428Y0065223D01*
X0044287Y0065182D01*
X0044145Y0065145D01*
X0044003Y0065112D01*
X0043859Y0065082D01*
X0043715Y0065056D01*
X0043570Y0065035D01*
X0043424Y0065017D01*
X0043278Y0065003D01*
X0043132Y0064993D01*
X0042986Y0064987D01*
X0042839Y0064985D01*
X0042692Y0064987D01*
X0042546Y0064993D01*
X0042400Y0065003D01*
X0042254Y0065017D01*
X0042108Y0065035D01*
X0041963Y0065056D01*
X0041819Y0065082D01*
X0041675Y0065112D01*
X0041533Y0065145D01*
X0041391Y0065182D01*
X0041250Y0065223D01*
X0041111Y0065268D01*
X0040972Y0065317D01*
X0040835Y0065369D01*
X0040700Y0065426D01*
X0040566Y0065485D01*
X0040434Y0065549D01*
X0040304Y0065616D01*
X0040175Y0065686D01*
X0040048Y0065760D01*
X0039924Y0065837D01*
X0039801Y0065918D01*
X0039681Y0066002D01*
X0039563Y0066089D01*
X0039448Y0066179D01*
X0039335Y0066272D01*
X0039224Y0066369D01*
X0039116Y0066468D01*
X0039011Y0066570D01*
X0038909Y0066675D01*
X0038810Y0066783D01*
X0038713Y0066894D01*
X0038620Y0067007D01*
X0038530Y0067122D01*
X0038443Y0067240D01*
X0038359Y0067360D01*
X0038278Y0067483D01*
X0038201Y0067607D01*
X0038127Y0067734D01*
X0038057Y0067863D01*
X0037990Y0067993D01*
X0037926Y0068125D01*
X0037867Y0068259D01*
X0037810Y0068394D01*
X0037758Y0068531D01*
X0037709Y0068670D01*
X0037664Y0068809D01*
X0037623Y0068950D01*
X0037586Y0069092D01*
X0037553Y0069234D01*
X0037523Y0069378D01*
X0037497Y0069522D01*
X0037476Y0069667D01*
X0037458Y0069813D01*
X0037444Y0069959D01*
X0037434Y0070105D01*
X0037428Y0070251D01*
X0037426Y0070398D01*
X0083665Y0083193D02*
X0083667Y0083346D01*
X0083673Y0083500D01*
X0083683Y0083653D01*
X0083697Y0083805D01*
X0083715Y0083958D01*
X0083737Y0084109D01*
X0083762Y0084260D01*
X0083792Y0084411D01*
X0083826Y0084561D01*
X0083863Y0084709D01*
X0083904Y0084857D01*
X0083949Y0085003D01*
X0083998Y0085149D01*
X0084051Y0085293D01*
X0084107Y0085435D01*
X0084167Y0085576D01*
X0084231Y0085716D01*
X0084298Y0085854D01*
X0084369Y0085990D01*
X0084444Y0086124D01*
X0084521Y0086256D01*
X0084603Y0086386D01*
X0084687Y0086514D01*
X0084775Y0086640D01*
X0084866Y0086763D01*
X0084960Y0086884D01*
X0085058Y0087002D01*
X0085158Y0087118D01*
X0085262Y0087231D01*
X0085368Y0087342D01*
X0085477Y0087450D01*
X0085589Y0087555D01*
X0085703Y0087656D01*
X0085821Y0087755D01*
X0085940Y0087851D01*
X0086062Y0087944D01*
X0086187Y0088033D01*
X0086314Y0088120D01*
X0086443Y0088202D01*
X0086574Y0088282D01*
X0086707Y0088358D01*
X0086842Y0088431D01*
X0086979Y0088500D01*
X0087118Y0088565D01*
X0087258Y0088627D01*
X0087400Y0088685D01*
X0087543Y0088740D01*
X0087688Y0088791D01*
X0087834Y0088838D01*
X0087981Y0088881D01*
X0088129Y0088920D01*
X0088278Y0088956D01*
X0088428Y0088987D01*
X0088579Y0089015D01*
X0088730Y0089039D01*
X0088883Y0089059D01*
X0089035Y0089075D01*
X0089188Y0089087D01*
X0089341Y0089095D01*
X0089494Y0089099D01*
X0089648Y0089099D01*
X0089801Y0089095D01*
X0089954Y0089087D01*
X0090107Y0089075D01*
X0090259Y0089059D01*
X0090412Y0089039D01*
X0090563Y0089015D01*
X0090714Y0088987D01*
X0090864Y0088956D01*
X0091013Y0088920D01*
X0091161Y0088881D01*
X0091308Y0088838D01*
X0091454Y0088791D01*
X0091599Y0088740D01*
X0091742Y0088685D01*
X0091884Y0088627D01*
X0092024Y0088565D01*
X0092163Y0088500D01*
X0092300Y0088431D01*
X0092435Y0088358D01*
X0092568Y0088282D01*
X0092699Y0088202D01*
X0092828Y0088120D01*
X0092955Y0088033D01*
X0093080Y0087944D01*
X0093202Y0087851D01*
X0093321Y0087755D01*
X0093439Y0087656D01*
X0093553Y0087555D01*
X0093665Y0087450D01*
X0093774Y0087342D01*
X0093880Y0087231D01*
X0093984Y0087118D01*
X0094084Y0087002D01*
X0094182Y0086884D01*
X0094276Y0086763D01*
X0094367Y0086640D01*
X0094455Y0086514D01*
X0094539Y0086386D01*
X0094621Y0086256D01*
X0094698Y0086124D01*
X0094773Y0085990D01*
X0094844Y0085854D01*
X0094911Y0085716D01*
X0094975Y0085576D01*
X0095035Y0085435D01*
X0095091Y0085293D01*
X0095144Y0085149D01*
X0095193Y0085003D01*
X0095238Y0084857D01*
X0095279Y0084709D01*
X0095316Y0084561D01*
X0095350Y0084411D01*
X0095380Y0084260D01*
X0095405Y0084109D01*
X0095427Y0083958D01*
X0095445Y0083805D01*
X0095459Y0083653D01*
X0095469Y0083500D01*
X0095475Y0083346D01*
X0095477Y0083193D01*
X0095475Y0083040D01*
X0095469Y0082886D01*
X0095459Y0082733D01*
X0095445Y0082581D01*
X0095427Y0082428D01*
X0095405Y0082277D01*
X0095380Y0082126D01*
X0095350Y0081975D01*
X0095316Y0081825D01*
X0095279Y0081677D01*
X0095238Y0081529D01*
X0095193Y0081383D01*
X0095144Y0081237D01*
X0095091Y0081093D01*
X0095035Y0080951D01*
X0094975Y0080810D01*
X0094911Y0080670D01*
X0094844Y0080532D01*
X0094773Y0080396D01*
X0094698Y0080262D01*
X0094621Y0080130D01*
X0094539Y0080000D01*
X0094455Y0079872D01*
X0094367Y0079746D01*
X0094276Y0079623D01*
X0094182Y0079502D01*
X0094084Y0079384D01*
X0093984Y0079268D01*
X0093880Y0079155D01*
X0093774Y0079044D01*
X0093665Y0078936D01*
X0093553Y0078831D01*
X0093439Y0078730D01*
X0093321Y0078631D01*
X0093202Y0078535D01*
X0093080Y0078442D01*
X0092955Y0078353D01*
X0092828Y0078266D01*
X0092699Y0078184D01*
X0092568Y0078104D01*
X0092435Y0078028D01*
X0092300Y0077955D01*
X0092163Y0077886D01*
X0092024Y0077821D01*
X0091884Y0077759D01*
X0091742Y0077701D01*
X0091599Y0077646D01*
X0091454Y0077595D01*
X0091308Y0077548D01*
X0091161Y0077505D01*
X0091013Y0077466D01*
X0090864Y0077430D01*
X0090714Y0077399D01*
X0090563Y0077371D01*
X0090412Y0077347D01*
X0090259Y0077327D01*
X0090107Y0077311D01*
X0089954Y0077299D01*
X0089801Y0077291D01*
X0089648Y0077287D01*
X0089494Y0077287D01*
X0089341Y0077291D01*
X0089188Y0077299D01*
X0089035Y0077311D01*
X0088883Y0077327D01*
X0088730Y0077347D01*
X0088579Y0077371D01*
X0088428Y0077399D01*
X0088278Y0077430D01*
X0088129Y0077466D01*
X0087981Y0077505D01*
X0087834Y0077548D01*
X0087688Y0077595D01*
X0087543Y0077646D01*
X0087400Y0077701D01*
X0087258Y0077759D01*
X0087118Y0077821D01*
X0086979Y0077886D01*
X0086842Y0077955D01*
X0086707Y0078028D01*
X0086574Y0078104D01*
X0086443Y0078184D01*
X0086314Y0078266D01*
X0086187Y0078353D01*
X0086062Y0078442D01*
X0085940Y0078535D01*
X0085821Y0078631D01*
X0085703Y0078730D01*
X0085589Y0078831D01*
X0085477Y0078936D01*
X0085368Y0079044D01*
X0085262Y0079155D01*
X0085158Y0079268D01*
X0085058Y0079384D01*
X0084960Y0079502D01*
X0084866Y0079623D01*
X0084775Y0079746D01*
X0084687Y0079872D01*
X0084603Y0080000D01*
X0084521Y0080130D01*
X0084444Y0080262D01*
X0084369Y0080396D01*
X0084298Y0080532D01*
X0084231Y0080670D01*
X0084167Y0080810D01*
X0084107Y0080951D01*
X0084051Y0081093D01*
X0083998Y0081237D01*
X0083949Y0081383D01*
X0083904Y0081529D01*
X0083863Y0081677D01*
X0083826Y0081825D01*
X0083792Y0081975D01*
X0083762Y0082126D01*
X0083737Y0082277D01*
X0083715Y0082428D01*
X0083697Y0082581D01*
X0083683Y0082733D01*
X0083673Y0082886D01*
X0083667Y0083040D01*
X0083665Y0083193D01*
X0105830Y0095988D02*
X0105832Y0096141D01*
X0105838Y0096295D01*
X0105848Y0096448D01*
X0105862Y0096600D01*
X0105880Y0096753D01*
X0105902Y0096904D01*
X0105927Y0097055D01*
X0105957Y0097206D01*
X0105991Y0097356D01*
X0106028Y0097504D01*
X0106069Y0097652D01*
X0106114Y0097798D01*
X0106163Y0097944D01*
X0106216Y0098088D01*
X0106272Y0098230D01*
X0106332Y0098371D01*
X0106396Y0098511D01*
X0106463Y0098649D01*
X0106534Y0098785D01*
X0106609Y0098919D01*
X0106686Y0099051D01*
X0106768Y0099181D01*
X0106852Y0099309D01*
X0106940Y0099435D01*
X0107031Y0099558D01*
X0107125Y0099679D01*
X0107223Y0099797D01*
X0107323Y0099913D01*
X0107427Y0100026D01*
X0107533Y0100137D01*
X0107642Y0100245D01*
X0107754Y0100350D01*
X0107868Y0100451D01*
X0107986Y0100550D01*
X0108105Y0100646D01*
X0108227Y0100739D01*
X0108352Y0100828D01*
X0108479Y0100915D01*
X0108608Y0100997D01*
X0108739Y0101077D01*
X0108872Y0101153D01*
X0109007Y0101226D01*
X0109144Y0101295D01*
X0109283Y0101360D01*
X0109423Y0101422D01*
X0109565Y0101480D01*
X0109708Y0101535D01*
X0109853Y0101586D01*
X0109999Y0101633D01*
X0110146Y0101676D01*
X0110294Y0101715D01*
X0110443Y0101751D01*
X0110593Y0101782D01*
X0110744Y0101810D01*
X0110895Y0101834D01*
X0111048Y0101854D01*
X0111200Y0101870D01*
X0111353Y0101882D01*
X0111506Y0101890D01*
X0111659Y0101894D01*
X0111813Y0101894D01*
X0111966Y0101890D01*
X0112119Y0101882D01*
X0112272Y0101870D01*
X0112424Y0101854D01*
X0112577Y0101834D01*
X0112728Y0101810D01*
X0112879Y0101782D01*
X0113029Y0101751D01*
X0113178Y0101715D01*
X0113326Y0101676D01*
X0113473Y0101633D01*
X0113619Y0101586D01*
X0113764Y0101535D01*
X0113907Y0101480D01*
X0114049Y0101422D01*
X0114189Y0101360D01*
X0114328Y0101295D01*
X0114465Y0101226D01*
X0114600Y0101153D01*
X0114733Y0101077D01*
X0114864Y0100997D01*
X0114993Y0100915D01*
X0115120Y0100828D01*
X0115245Y0100739D01*
X0115367Y0100646D01*
X0115486Y0100550D01*
X0115604Y0100451D01*
X0115718Y0100350D01*
X0115830Y0100245D01*
X0115939Y0100137D01*
X0116045Y0100026D01*
X0116149Y0099913D01*
X0116249Y0099797D01*
X0116347Y0099679D01*
X0116441Y0099558D01*
X0116532Y0099435D01*
X0116620Y0099309D01*
X0116704Y0099181D01*
X0116786Y0099051D01*
X0116863Y0098919D01*
X0116938Y0098785D01*
X0117009Y0098649D01*
X0117076Y0098511D01*
X0117140Y0098371D01*
X0117200Y0098230D01*
X0117256Y0098088D01*
X0117309Y0097944D01*
X0117358Y0097798D01*
X0117403Y0097652D01*
X0117444Y0097504D01*
X0117481Y0097356D01*
X0117515Y0097206D01*
X0117545Y0097055D01*
X0117570Y0096904D01*
X0117592Y0096753D01*
X0117610Y0096600D01*
X0117624Y0096448D01*
X0117634Y0096295D01*
X0117640Y0096141D01*
X0117642Y0095988D01*
X0117640Y0095835D01*
X0117634Y0095681D01*
X0117624Y0095528D01*
X0117610Y0095376D01*
X0117592Y0095223D01*
X0117570Y0095072D01*
X0117545Y0094921D01*
X0117515Y0094770D01*
X0117481Y0094620D01*
X0117444Y0094472D01*
X0117403Y0094324D01*
X0117358Y0094178D01*
X0117309Y0094032D01*
X0117256Y0093888D01*
X0117200Y0093746D01*
X0117140Y0093605D01*
X0117076Y0093465D01*
X0117009Y0093327D01*
X0116938Y0093191D01*
X0116863Y0093057D01*
X0116786Y0092925D01*
X0116704Y0092795D01*
X0116620Y0092667D01*
X0116532Y0092541D01*
X0116441Y0092418D01*
X0116347Y0092297D01*
X0116249Y0092179D01*
X0116149Y0092063D01*
X0116045Y0091950D01*
X0115939Y0091839D01*
X0115830Y0091731D01*
X0115718Y0091626D01*
X0115604Y0091525D01*
X0115486Y0091426D01*
X0115367Y0091330D01*
X0115245Y0091237D01*
X0115120Y0091148D01*
X0114993Y0091061D01*
X0114864Y0090979D01*
X0114733Y0090899D01*
X0114600Y0090823D01*
X0114465Y0090750D01*
X0114328Y0090681D01*
X0114189Y0090616D01*
X0114049Y0090554D01*
X0113907Y0090496D01*
X0113764Y0090441D01*
X0113619Y0090390D01*
X0113473Y0090343D01*
X0113326Y0090300D01*
X0113178Y0090261D01*
X0113029Y0090225D01*
X0112879Y0090194D01*
X0112728Y0090166D01*
X0112577Y0090142D01*
X0112424Y0090122D01*
X0112272Y0090106D01*
X0112119Y0090094D01*
X0111966Y0090086D01*
X0111813Y0090082D01*
X0111659Y0090082D01*
X0111506Y0090086D01*
X0111353Y0090094D01*
X0111200Y0090106D01*
X0111048Y0090122D01*
X0110895Y0090142D01*
X0110744Y0090166D01*
X0110593Y0090194D01*
X0110443Y0090225D01*
X0110294Y0090261D01*
X0110146Y0090300D01*
X0109999Y0090343D01*
X0109853Y0090390D01*
X0109708Y0090441D01*
X0109565Y0090496D01*
X0109423Y0090554D01*
X0109283Y0090616D01*
X0109144Y0090681D01*
X0109007Y0090750D01*
X0108872Y0090823D01*
X0108739Y0090899D01*
X0108608Y0090979D01*
X0108479Y0091061D01*
X0108352Y0091148D01*
X0108227Y0091237D01*
X0108105Y0091330D01*
X0107986Y0091426D01*
X0107868Y0091525D01*
X0107754Y0091626D01*
X0107642Y0091731D01*
X0107533Y0091839D01*
X0107427Y0091950D01*
X0107323Y0092063D01*
X0107223Y0092179D01*
X0107125Y0092297D01*
X0107031Y0092418D01*
X0106940Y0092541D01*
X0106852Y0092667D01*
X0106768Y0092795D01*
X0106686Y0092925D01*
X0106609Y0093057D01*
X0106534Y0093191D01*
X0106463Y0093327D01*
X0106396Y0093465D01*
X0106332Y0093605D01*
X0106272Y0093746D01*
X0106216Y0093888D01*
X0106163Y0094032D01*
X0106114Y0094178D01*
X0106069Y0094324D01*
X0106028Y0094472D01*
X0105991Y0094620D01*
X0105957Y0094770D01*
X0105927Y0094921D01*
X0105902Y0095072D01*
X0105880Y0095223D01*
X0105862Y0095376D01*
X0105848Y0095528D01*
X0105838Y0095681D01*
X0105832Y0095835D01*
X0105830Y0095988D01*
X0127996Y0083193D02*
X0127998Y0083346D01*
X0128004Y0083500D01*
X0128014Y0083653D01*
X0128028Y0083805D01*
X0128046Y0083958D01*
X0128068Y0084109D01*
X0128093Y0084260D01*
X0128123Y0084411D01*
X0128157Y0084561D01*
X0128194Y0084709D01*
X0128235Y0084857D01*
X0128280Y0085003D01*
X0128329Y0085149D01*
X0128382Y0085293D01*
X0128438Y0085435D01*
X0128498Y0085576D01*
X0128562Y0085716D01*
X0128629Y0085854D01*
X0128700Y0085990D01*
X0128775Y0086124D01*
X0128852Y0086256D01*
X0128934Y0086386D01*
X0129018Y0086514D01*
X0129106Y0086640D01*
X0129197Y0086763D01*
X0129291Y0086884D01*
X0129389Y0087002D01*
X0129489Y0087118D01*
X0129593Y0087231D01*
X0129699Y0087342D01*
X0129808Y0087450D01*
X0129920Y0087555D01*
X0130034Y0087656D01*
X0130152Y0087755D01*
X0130271Y0087851D01*
X0130393Y0087944D01*
X0130518Y0088033D01*
X0130645Y0088120D01*
X0130774Y0088202D01*
X0130905Y0088282D01*
X0131038Y0088358D01*
X0131173Y0088431D01*
X0131310Y0088500D01*
X0131449Y0088565D01*
X0131589Y0088627D01*
X0131731Y0088685D01*
X0131874Y0088740D01*
X0132019Y0088791D01*
X0132165Y0088838D01*
X0132312Y0088881D01*
X0132460Y0088920D01*
X0132609Y0088956D01*
X0132759Y0088987D01*
X0132910Y0089015D01*
X0133061Y0089039D01*
X0133214Y0089059D01*
X0133366Y0089075D01*
X0133519Y0089087D01*
X0133672Y0089095D01*
X0133825Y0089099D01*
X0133979Y0089099D01*
X0134132Y0089095D01*
X0134285Y0089087D01*
X0134438Y0089075D01*
X0134590Y0089059D01*
X0134743Y0089039D01*
X0134894Y0089015D01*
X0135045Y0088987D01*
X0135195Y0088956D01*
X0135344Y0088920D01*
X0135492Y0088881D01*
X0135639Y0088838D01*
X0135785Y0088791D01*
X0135930Y0088740D01*
X0136073Y0088685D01*
X0136215Y0088627D01*
X0136355Y0088565D01*
X0136494Y0088500D01*
X0136631Y0088431D01*
X0136766Y0088358D01*
X0136899Y0088282D01*
X0137030Y0088202D01*
X0137159Y0088120D01*
X0137286Y0088033D01*
X0137411Y0087944D01*
X0137533Y0087851D01*
X0137652Y0087755D01*
X0137770Y0087656D01*
X0137884Y0087555D01*
X0137996Y0087450D01*
X0138105Y0087342D01*
X0138211Y0087231D01*
X0138315Y0087118D01*
X0138415Y0087002D01*
X0138513Y0086884D01*
X0138607Y0086763D01*
X0138698Y0086640D01*
X0138786Y0086514D01*
X0138870Y0086386D01*
X0138952Y0086256D01*
X0139029Y0086124D01*
X0139104Y0085990D01*
X0139175Y0085854D01*
X0139242Y0085716D01*
X0139306Y0085576D01*
X0139366Y0085435D01*
X0139422Y0085293D01*
X0139475Y0085149D01*
X0139524Y0085003D01*
X0139569Y0084857D01*
X0139610Y0084709D01*
X0139647Y0084561D01*
X0139681Y0084411D01*
X0139711Y0084260D01*
X0139736Y0084109D01*
X0139758Y0083958D01*
X0139776Y0083805D01*
X0139790Y0083653D01*
X0139800Y0083500D01*
X0139806Y0083346D01*
X0139808Y0083193D01*
X0139806Y0083040D01*
X0139800Y0082886D01*
X0139790Y0082733D01*
X0139776Y0082581D01*
X0139758Y0082428D01*
X0139736Y0082277D01*
X0139711Y0082126D01*
X0139681Y0081975D01*
X0139647Y0081825D01*
X0139610Y0081677D01*
X0139569Y0081529D01*
X0139524Y0081383D01*
X0139475Y0081237D01*
X0139422Y0081093D01*
X0139366Y0080951D01*
X0139306Y0080810D01*
X0139242Y0080670D01*
X0139175Y0080532D01*
X0139104Y0080396D01*
X0139029Y0080262D01*
X0138952Y0080130D01*
X0138870Y0080000D01*
X0138786Y0079872D01*
X0138698Y0079746D01*
X0138607Y0079623D01*
X0138513Y0079502D01*
X0138415Y0079384D01*
X0138315Y0079268D01*
X0138211Y0079155D01*
X0138105Y0079044D01*
X0137996Y0078936D01*
X0137884Y0078831D01*
X0137770Y0078730D01*
X0137652Y0078631D01*
X0137533Y0078535D01*
X0137411Y0078442D01*
X0137286Y0078353D01*
X0137159Y0078266D01*
X0137030Y0078184D01*
X0136899Y0078104D01*
X0136766Y0078028D01*
X0136631Y0077955D01*
X0136494Y0077886D01*
X0136355Y0077821D01*
X0136215Y0077759D01*
X0136073Y0077701D01*
X0135930Y0077646D01*
X0135785Y0077595D01*
X0135639Y0077548D01*
X0135492Y0077505D01*
X0135344Y0077466D01*
X0135195Y0077430D01*
X0135045Y0077399D01*
X0134894Y0077371D01*
X0134743Y0077347D01*
X0134590Y0077327D01*
X0134438Y0077311D01*
X0134285Y0077299D01*
X0134132Y0077291D01*
X0133979Y0077287D01*
X0133825Y0077287D01*
X0133672Y0077291D01*
X0133519Y0077299D01*
X0133366Y0077311D01*
X0133214Y0077327D01*
X0133061Y0077347D01*
X0132910Y0077371D01*
X0132759Y0077399D01*
X0132609Y0077430D01*
X0132460Y0077466D01*
X0132312Y0077505D01*
X0132165Y0077548D01*
X0132019Y0077595D01*
X0131874Y0077646D01*
X0131731Y0077701D01*
X0131589Y0077759D01*
X0131449Y0077821D01*
X0131310Y0077886D01*
X0131173Y0077955D01*
X0131038Y0078028D01*
X0130905Y0078104D01*
X0130774Y0078184D01*
X0130645Y0078266D01*
X0130518Y0078353D01*
X0130393Y0078442D01*
X0130271Y0078535D01*
X0130152Y0078631D01*
X0130034Y0078730D01*
X0129920Y0078831D01*
X0129808Y0078936D01*
X0129699Y0079044D01*
X0129593Y0079155D01*
X0129489Y0079268D01*
X0129389Y0079384D01*
X0129291Y0079502D01*
X0129197Y0079623D01*
X0129106Y0079746D01*
X0129018Y0079872D01*
X0128934Y0080000D01*
X0128852Y0080130D01*
X0128775Y0080262D01*
X0128700Y0080396D01*
X0128629Y0080532D01*
X0128562Y0080670D01*
X0128498Y0080810D01*
X0128438Y0080951D01*
X0128382Y0081093D01*
X0128329Y0081237D01*
X0128280Y0081383D01*
X0128235Y0081529D01*
X0128194Y0081677D01*
X0128157Y0081825D01*
X0128123Y0081975D01*
X0128093Y0082126D01*
X0128068Y0082277D01*
X0128046Y0082428D01*
X0128028Y0082581D01*
X0128014Y0082733D01*
X0128004Y0082886D01*
X0127998Y0083040D01*
X0127996Y0083193D01*
X0127996Y0057602D02*
X0127998Y0057755D01*
X0128004Y0057909D01*
X0128014Y0058062D01*
X0128028Y0058214D01*
X0128046Y0058367D01*
X0128068Y0058518D01*
X0128093Y0058669D01*
X0128123Y0058820D01*
X0128157Y0058970D01*
X0128194Y0059118D01*
X0128235Y0059266D01*
X0128280Y0059412D01*
X0128329Y0059558D01*
X0128382Y0059702D01*
X0128438Y0059844D01*
X0128498Y0059985D01*
X0128562Y0060125D01*
X0128629Y0060263D01*
X0128700Y0060399D01*
X0128775Y0060533D01*
X0128852Y0060665D01*
X0128934Y0060795D01*
X0129018Y0060923D01*
X0129106Y0061049D01*
X0129197Y0061172D01*
X0129291Y0061293D01*
X0129389Y0061411D01*
X0129489Y0061527D01*
X0129593Y0061640D01*
X0129699Y0061751D01*
X0129808Y0061859D01*
X0129920Y0061964D01*
X0130034Y0062065D01*
X0130152Y0062164D01*
X0130271Y0062260D01*
X0130393Y0062353D01*
X0130518Y0062442D01*
X0130645Y0062529D01*
X0130774Y0062611D01*
X0130905Y0062691D01*
X0131038Y0062767D01*
X0131173Y0062840D01*
X0131310Y0062909D01*
X0131449Y0062974D01*
X0131589Y0063036D01*
X0131731Y0063094D01*
X0131874Y0063149D01*
X0132019Y0063200D01*
X0132165Y0063247D01*
X0132312Y0063290D01*
X0132460Y0063329D01*
X0132609Y0063365D01*
X0132759Y0063396D01*
X0132910Y0063424D01*
X0133061Y0063448D01*
X0133214Y0063468D01*
X0133366Y0063484D01*
X0133519Y0063496D01*
X0133672Y0063504D01*
X0133825Y0063508D01*
X0133979Y0063508D01*
X0134132Y0063504D01*
X0134285Y0063496D01*
X0134438Y0063484D01*
X0134590Y0063468D01*
X0134743Y0063448D01*
X0134894Y0063424D01*
X0135045Y0063396D01*
X0135195Y0063365D01*
X0135344Y0063329D01*
X0135492Y0063290D01*
X0135639Y0063247D01*
X0135785Y0063200D01*
X0135930Y0063149D01*
X0136073Y0063094D01*
X0136215Y0063036D01*
X0136355Y0062974D01*
X0136494Y0062909D01*
X0136631Y0062840D01*
X0136766Y0062767D01*
X0136899Y0062691D01*
X0137030Y0062611D01*
X0137159Y0062529D01*
X0137286Y0062442D01*
X0137411Y0062353D01*
X0137533Y0062260D01*
X0137652Y0062164D01*
X0137770Y0062065D01*
X0137884Y0061964D01*
X0137996Y0061859D01*
X0138105Y0061751D01*
X0138211Y0061640D01*
X0138315Y0061527D01*
X0138415Y0061411D01*
X0138513Y0061293D01*
X0138607Y0061172D01*
X0138698Y0061049D01*
X0138786Y0060923D01*
X0138870Y0060795D01*
X0138952Y0060665D01*
X0139029Y0060533D01*
X0139104Y0060399D01*
X0139175Y0060263D01*
X0139242Y0060125D01*
X0139306Y0059985D01*
X0139366Y0059844D01*
X0139422Y0059702D01*
X0139475Y0059558D01*
X0139524Y0059412D01*
X0139569Y0059266D01*
X0139610Y0059118D01*
X0139647Y0058970D01*
X0139681Y0058820D01*
X0139711Y0058669D01*
X0139736Y0058518D01*
X0139758Y0058367D01*
X0139776Y0058214D01*
X0139790Y0058062D01*
X0139800Y0057909D01*
X0139806Y0057755D01*
X0139808Y0057602D01*
X0139806Y0057449D01*
X0139800Y0057295D01*
X0139790Y0057142D01*
X0139776Y0056990D01*
X0139758Y0056837D01*
X0139736Y0056686D01*
X0139711Y0056535D01*
X0139681Y0056384D01*
X0139647Y0056234D01*
X0139610Y0056086D01*
X0139569Y0055938D01*
X0139524Y0055792D01*
X0139475Y0055646D01*
X0139422Y0055502D01*
X0139366Y0055360D01*
X0139306Y0055219D01*
X0139242Y0055079D01*
X0139175Y0054941D01*
X0139104Y0054805D01*
X0139029Y0054671D01*
X0138952Y0054539D01*
X0138870Y0054409D01*
X0138786Y0054281D01*
X0138698Y0054155D01*
X0138607Y0054032D01*
X0138513Y0053911D01*
X0138415Y0053793D01*
X0138315Y0053677D01*
X0138211Y0053564D01*
X0138105Y0053453D01*
X0137996Y0053345D01*
X0137884Y0053240D01*
X0137770Y0053139D01*
X0137652Y0053040D01*
X0137533Y0052944D01*
X0137411Y0052851D01*
X0137286Y0052762D01*
X0137159Y0052675D01*
X0137030Y0052593D01*
X0136899Y0052513D01*
X0136766Y0052437D01*
X0136631Y0052364D01*
X0136494Y0052295D01*
X0136355Y0052230D01*
X0136215Y0052168D01*
X0136073Y0052110D01*
X0135930Y0052055D01*
X0135785Y0052004D01*
X0135639Y0051957D01*
X0135492Y0051914D01*
X0135344Y0051875D01*
X0135195Y0051839D01*
X0135045Y0051808D01*
X0134894Y0051780D01*
X0134743Y0051756D01*
X0134590Y0051736D01*
X0134438Y0051720D01*
X0134285Y0051708D01*
X0134132Y0051700D01*
X0133979Y0051696D01*
X0133825Y0051696D01*
X0133672Y0051700D01*
X0133519Y0051708D01*
X0133366Y0051720D01*
X0133214Y0051736D01*
X0133061Y0051756D01*
X0132910Y0051780D01*
X0132759Y0051808D01*
X0132609Y0051839D01*
X0132460Y0051875D01*
X0132312Y0051914D01*
X0132165Y0051957D01*
X0132019Y0052004D01*
X0131874Y0052055D01*
X0131731Y0052110D01*
X0131589Y0052168D01*
X0131449Y0052230D01*
X0131310Y0052295D01*
X0131173Y0052364D01*
X0131038Y0052437D01*
X0130905Y0052513D01*
X0130774Y0052593D01*
X0130645Y0052675D01*
X0130518Y0052762D01*
X0130393Y0052851D01*
X0130271Y0052944D01*
X0130152Y0053040D01*
X0130034Y0053139D01*
X0129920Y0053240D01*
X0129808Y0053345D01*
X0129699Y0053453D01*
X0129593Y0053564D01*
X0129489Y0053677D01*
X0129389Y0053793D01*
X0129291Y0053911D01*
X0129197Y0054032D01*
X0129106Y0054155D01*
X0129018Y0054281D01*
X0128934Y0054409D01*
X0128852Y0054539D01*
X0128775Y0054671D01*
X0128700Y0054805D01*
X0128629Y0054941D01*
X0128562Y0055079D01*
X0128498Y0055219D01*
X0128438Y0055360D01*
X0128382Y0055502D01*
X0128329Y0055646D01*
X0128280Y0055792D01*
X0128235Y0055938D01*
X0128194Y0056086D01*
X0128157Y0056234D01*
X0128123Y0056384D01*
X0128093Y0056535D01*
X0128068Y0056686D01*
X0128046Y0056837D01*
X0128028Y0056990D01*
X0128014Y0057142D01*
X0128004Y0057295D01*
X0127998Y0057449D01*
X0127996Y0057602D01*
D11*
X0246579Y0067150D03*
X0252484Y0067150D03*
X0266264Y0067150D03*
X0272169Y0067150D03*
X0285949Y0067150D03*
X0291854Y0067150D03*
X0305634Y0067150D03*
X0311539Y0067150D03*
X0325319Y0067150D03*
X0331224Y0067150D03*
X0345004Y0067150D03*
X0350909Y0067150D03*
X0364689Y0067150D03*
X0370594Y0067150D03*
X0384374Y0067150D03*
X0390280Y0067150D03*
X0390280Y0073646D03*
X0384374Y0073646D03*
X0370594Y0073646D03*
X0364689Y0073646D03*
X0350909Y0073646D03*
X0345004Y0073646D03*
X0331224Y0073646D03*
X0325319Y0073646D03*
X0311539Y0073646D03*
X0305634Y0073646D03*
X0291854Y0073646D03*
X0285949Y0073646D03*
X0272169Y0073646D03*
X0266264Y0073646D03*
X0252484Y0073646D03*
X0246579Y0073646D03*
D12*
X0246579Y0070398D03*
X0252484Y0070398D03*
X0266264Y0070398D03*
X0272169Y0070398D03*
X0285949Y0070398D03*
X0291854Y0070398D03*
X0305634Y0070398D03*
X0311539Y0070398D03*
X0325319Y0070398D03*
X0331224Y0070398D03*
X0345004Y0070398D03*
X0350909Y0070398D03*
X0364689Y0070398D03*
X0370594Y0070398D03*
X0384374Y0070398D03*
X0390280Y0070398D03*
D13*
X0066067Y0080240D03*
X0055043Y0080240D03*
X0055043Y0060555D03*
X0066067Y0060555D03*
D14*
X0063902Y0070398D03*
X0057209Y0070398D03*
M02*
