G75*
%MOIN*%
%OFA0B0*%
%FSLAX25Y25*%
%IPPOS*%
%LPD*%
%AMOC8*
5,1,8,0,0,1.08239X$1,22.5*
%
%ADD10C,0.00000*%
%ADD11C,0.00600*%
%ADD12C,0.00500*%
%ADD13C,0.00197*%
%ADD14C,0.00200*%
%ADD15C,0.00400*%
%ADD16C,0.00700*%
D10*
X0031028Y0034965D02*
X0038902Y0027091D01*
X0128469Y0027091D01*
X0162917Y0061539D01*
X0398154Y0061539D01*
X0403075Y0066461D01*
X0403075Y0074335D01*
X0398154Y0079256D01*
X0162917Y0079256D01*
X0128469Y0113705D01*
X0038902Y0113705D01*
X0031028Y0105831D01*
X0031028Y0034965D01*
X0105830Y0044807D02*
X0105832Y0044960D01*
X0105838Y0045114D01*
X0105848Y0045267D01*
X0105862Y0045419D01*
X0105880Y0045572D01*
X0105902Y0045723D01*
X0105927Y0045874D01*
X0105957Y0046025D01*
X0105991Y0046175D01*
X0106028Y0046323D01*
X0106069Y0046471D01*
X0106114Y0046617D01*
X0106163Y0046763D01*
X0106216Y0046907D01*
X0106272Y0047049D01*
X0106332Y0047190D01*
X0106396Y0047330D01*
X0106463Y0047468D01*
X0106534Y0047604D01*
X0106609Y0047738D01*
X0106686Y0047870D01*
X0106768Y0048000D01*
X0106852Y0048128D01*
X0106940Y0048254D01*
X0107031Y0048377D01*
X0107125Y0048498D01*
X0107223Y0048616D01*
X0107323Y0048732D01*
X0107427Y0048845D01*
X0107533Y0048956D01*
X0107642Y0049064D01*
X0107754Y0049169D01*
X0107868Y0049270D01*
X0107986Y0049369D01*
X0108105Y0049465D01*
X0108227Y0049558D01*
X0108352Y0049647D01*
X0108479Y0049734D01*
X0108608Y0049816D01*
X0108739Y0049896D01*
X0108872Y0049972D01*
X0109007Y0050045D01*
X0109144Y0050114D01*
X0109283Y0050179D01*
X0109423Y0050241D01*
X0109565Y0050299D01*
X0109708Y0050354D01*
X0109853Y0050405D01*
X0109999Y0050452D01*
X0110146Y0050495D01*
X0110294Y0050534D01*
X0110443Y0050570D01*
X0110593Y0050601D01*
X0110744Y0050629D01*
X0110895Y0050653D01*
X0111048Y0050673D01*
X0111200Y0050689D01*
X0111353Y0050701D01*
X0111506Y0050709D01*
X0111659Y0050713D01*
X0111813Y0050713D01*
X0111966Y0050709D01*
X0112119Y0050701D01*
X0112272Y0050689D01*
X0112424Y0050673D01*
X0112577Y0050653D01*
X0112728Y0050629D01*
X0112879Y0050601D01*
X0113029Y0050570D01*
X0113178Y0050534D01*
X0113326Y0050495D01*
X0113473Y0050452D01*
X0113619Y0050405D01*
X0113764Y0050354D01*
X0113907Y0050299D01*
X0114049Y0050241D01*
X0114189Y0050179D01*
X0114328Y0050114D01*
X0114465Y0050045D01*
X0114600Y0049972D01*
X0114733Y0049896D01*
X0114864Y0049816D01*
X0114993Y0049734D01*
X0115120Y0049647D01*
X0115245Y0049558D01*
X0115367Y0049465D01*
X0115486Y0049369D01*
X0115604Y0049270D01*
X0115718Y0049169D01*
X0115830Y0049064D01*
X0115939Y0048956D01*
X0116045Y0048845D01*
X0116149Y0048732D01*
X0116249Y0048616D01*
X0116347Y0048498D01*
X0116441Y0048377D01*
X0116532Y0048254D01*
X0116620Y0048128D01*
X0116704Y0048000D01*
X0116786Y0047870D01*
X0116863Y0047738D01*
X0116938Y0047604D01*
X0117009Y0047468D01*
X0117076Y0047330D01*
X0117140Y0047190D01*
X0117200Y0047049D01*
X0117256Y0046907D01*
X0117309Y0046763D01*
X0117358Y0046617D01*
X0117403Y0046471D01*
X0117444Y0046323D01*
X0117481Y0046175D01*
X0117515Y0046025D01*
X0117545Y0045874D01*
X0117570Y0045723D01*
X0117592Y0045572D01*
X0117610Y0045419D01*
X0117624Y0045267D01*
X0117634Y0045114D01*
X0117640Y0044960D01*
X0117642Y0044807D01*
X0117640Y0044654D01*
X0117634Y0044500D01*
X0117624Y0044347D01*
X0117610Y0044195D01*
X0117592Y0044042D01*
X0117570Y0043891D01*
X0117545Y0043740D01*
X0117515Y0043589D01*
X0117481Y0043439D01*
X0117444Y0043291D01*
X0117403Y0043143D01*
X0117358Y0042997D01*
X0117309Y0042851D01*
X0117256Y0042707D01*
X0117200Y0042565D01*
X0117140Y0042424D01*
X0117076Y0042284D01*
X0117009Y0042146D01*
X0116938Y0042010D01*
X0116863Y0041876D01*
X0116786Y0041744D01*
X0116704Y0041614D01*
X0116620Y0041486D01*
X0116532Y0041360D01*
X0116441Y0041237D01*
X0116347Y0041116D01*
X0116249Y0040998D01*
X0116149Y0040882D01*
X0116045Y0040769D01*
X0115939Y0040658D01*
X0115830Y0040550D01*
X0115718Y0040445D01*
X0115604Y0040344D01*
X0115486Y0040245D01*
X0115367Y0040149D01*
X0115245Y0040056D01*
X0115120Y0039967D01*
X0114993Y0039880D01*
X0114864Y0039798D01*
X0114733Y0039718D01*
X0114600Y0039642D01*
X0114465Y0039569D01*
X0114328Y0039500D01*
X0114189Y0039435D01*
X0114049Y0039373D01*
X0113907Y0039315D01*
X0113764Y0039260D01*
X0113619Y0039209D01*
X0113473Y0039162D01*
X0113326Y0039119D01*
X0113178Y0039080D01*
X0113029Y0039044D01*
X0112879Y0039013D01*
X0112728Y0038985D01*
X0112577Y0038961D01*
X0112424Y0038941D01*
X0112272Y0038925D01*
X0112119Y0038913D01*
X0111966Y0038905D01*
X0111813Y0038901D01*
X0111659Y0038901D01*
X0111506Y0038905D01*
X0111353Y0038913D01*
X0111200Y0038925D01*
X0111048Y0038941D01*
X0110895Y0038961D01*
X0110744Y0038985D01*
X0110593Y0039013D01*
X0110443Y0039044D01*
X0110294Y0039080D01*
X0110146Y0039119D01*
X0109999Y0039162D01*
X0109853Y0039209D01*
X0109708Y0039260D01*
X0109565Y0039315D01*
X0109423Y0039373D01*
X0109283Y0039435D01*
X0109144Y0039500D01*
X0109007Y0039569D01*
X0108872Y0039642D01*
X0108739Y0039718D01*
X0108608Y0039798D01*
X0108479Y0039880D01*
X0108352Y0039967D01*
X0108227Y0040056D01*
X0108105Y0040149D01*
X0107986Y0040245D01*
X0107868Y0040344D01*
X0107754Y0040445D01*
X0107642Y0040550D01*
X0107533Y0040658D01*
X0107427Y0040769D01*
X0107323Y0040882D01*
X0107223Y0040998D01*
X0107125Y0041116D01*
X0107031Y0041237D01*
X0106940Y0041360D01*
X0106852Y0041486D01*
X0106768Y0041614D01*
X0106686Y0041744D01*
X0106609Y0041876D01*
X0106534Y0042010D01*
X0106463Y0042146D01*
X0106396Y0042284D01*
X0106332Y0042424D01*
X0106272Y0042565D01*
X0106216Y0042707D01*
X0106163Y0042851D01*
X0106114Y0042997D01*
X0106069Y0043143D01*
X0106028Y0043291D01*
X0105991Y0043439D01*
X0105957Y0043589D01*
X0105927Y0043740D01*
X0105902Y0043891D01*
X0105880Y0044042D01*
X0105862Y0044195D01*
X0105848Y0044347D01*
X0105838Y0044500D01*
X0105832Y0044654D01*
X0105830Y0044807D01*
X0083665Y0057602D02*
X0083667Y0057755D01*
X0083673Y0057909D01*
X0083683Y0058062D01*
X0083697Y0058214D01*
X0083715Y0058367D01*
X0083737Y0058518D01*
X0083762Y0058669D01*
X0083792Y0058820D01*
X0083826Y0058970D01*
X0083863Y0059118D01*
X0083904Y0059266D01*
X0083949Y0059412D01*
X0083998Y0059558D01*
X0084051Y0059702D01*
X0084107Y0059844D01*
X0084167Y0059985D01*
X0084231Y0060125D01*
X0084298Y0060263D01*
X0084369Y0060399D01*
X0084444Y0060533D01*
X0084521Y0060665D01*
X0084603Y0060795D01*
X0084687Y0060923D01*
X0084775Y0061049D01*
X0084866Y0061172D01*
X0084960Y0061293D01*
X0085058Y0061411D01*
X0085158Y0061527D01*
X0085262Y0061640D01*
X0085368Y0061751D01*
X0085477Y0061859D01*
X0085589Y0061964D01*
X0085703Y0062065D01*
X0085821Y0062164D01*
X0085940Y0062260D01*
X0086062Y0062353D01*
X0086187Y0062442D01*
X0086314Y0062529D01*
X0086443Y0062611D01*
X0086574Y0062691D01*
X0086707Y0062767D01*
X0086842Y0062840D01*
X0086979Y0062909D01*
X0087118Y0062974D01*
X0087258Y0063036D01*
X0087400Y0063094D01*
X0087543Y0063149D01*
X0087688Y0063200D01*
X0087834Y0063247D01*
X0087981Y0063290D01*
X0088129Y0063329D01*
X0088278Y0063365D01*
X0088428Y0063396D01*
X0088579Y0063424D01*
X0088730Y0063448D01*
X0088883Y0063468D01*
X0089035Y0063484D01*
X0089188Y0063496D01*
X0089341Y0063504D01*
X0089494Y0063508D01*
X0089648Y0063508D01*
X0089801Y0063504D01*
X0089954Y0063496D01*
X0090107Y0063484D01*
X0090259Y0063468D01*
X0090412Y0063448D01*
X0090563Y0063424D01*
X0090714Y0063396D01*
X0090864Y0063365D01*
X0091013Y0063329D01*
X0091161Y0063290D01*
X0091308Y0063247D01*
X0091454Y0063200D01*
X0091599Y0063149D01*
X0091742Y0063094D01*
X0091884Y0063036D01*
X0092024Y0062974D01*
X0092163Y0062909D01*
X0092300Y0062840D01*
X0092435Y0062767D01*
X0092568Y0062691D01*
X0092699Y0062611D01*
X0092828Y0062529D01*
X0092955Y0062442D01*
X0093080Y0062353D01*
X0093202Y0062260D01*
X0093321Y0062164D01*
X0093439Y0062065D01*
X0093553Y0061964D01*
X0093665Y0061859D01*
X0093774Y0061751D01*
X0093880Y0061640D01*
X0093984Y0061527D01*
X0094084Y0061411D01*
X0094182Y0061293D01*
X0094276Y0061172D01*
X0094367Y0061049D01*
X0094455Y0060923D01*
X0094539Y0060795D01*
X0094621Y0060665D01*
X0094698Y0060533D01*
X0094773Y0060399D01*
X0094844Y0060263D01*
X0094911Y0060125D01*
X0094975Y0059985D01*
X0095035Y0059844D01*
X0095091Y0059702D01*
X0095144Y0059558D01*
X0095193Y0059412D01*
X0095238Y0059266D01*
X0095279Y0059118D01*
X0095316Y0058970D01*
X0095350Y0058820D01*
X0095380Y0058669D01*
X0095405Y0058518D01*
X0095427Y0058367D01*
X0095445Y0058214D01*
X0095459Y0058062D01*
X0095469Y0057909D01*
X0095475Y0057755D01*
X0095477Y0057602D01*
X0095475Y0057449D01*
X0095469Y0057295D01*
X0095459Y0057142D01*
X0095445Y0056990D01*
X0095427Y0056837D01*
X0095405Y0056686D01*
X0095380Y0056535D01*
X0095350Y0056384D01*
X0095316Y0056234D01*
X0095279Y0056086D01*
X0095238Y0055938D01*
X0095193Y0055792D01*
X0095144Y0055646D01*
X0095091Y0055502D01*
X0095035Y0055360D01*
X0094975Y0055219D01*
X0094911Y0055079D01*
X0094844Y0054941D01*
X0094773Y0054805D01*
X0094698Y0054671D01*
X0094621Y0054539D01*
X0094539Y0054409D01*
X0094455Y0054281D01*
X0094367Y0054155D01*
X0094276Y0054032D01*
X0094182Y0053911D01*
X0094084Y0053793D01*
X0093984Y0053677D01*
X0093880Y0053564D01*
X0093774Y0053453D01*
X0093665Y0053345D01*
X0093553Y0053240D01*
X0093439Y0053139D01*
X0093321Y0053040D01*
X0093202Y0052944D01*
X0093080Y0052851D01*
X0092955Y0052762D01*
X0092828Y0052675D01*
X0092699Y0052593D01*
X0092568Y0052513D01*
X0092435Y0052437D01*
X0092300Y0052364D01*
X0092163Y0052295D01*
X0092024Y0052230D01*
X0091884Y0052168D01*
X0091742Y0052110D01*
X0091599Y0052055D01*
X0091454Y0052004D01*
X0091308Y0051957D01*
X0091161Y0051914D01*
X0091013Y0051875D01*
X0090864Y0051839D01*
X0090714Y0051808D01*
X0090563Y0051780D01*
X0090412Y0051756D01*
X0090259Y0051736D01*
X0090107Y0051720D01*
X0089954Y0051708D01*
X0089801Y0051700D01*
X0089648Y0051696D01*
X0089494Y0051696D01*
X0089341Y0051700D01*
X0089188Y0051708D01*
X0089035Y0051720D01*
X0088883Y0051736D01*
X0088730Y0051756D01*
X0088579Y0051780D01*
X0088428Y0051808D01*
X0088278Y0051839D01*
X0088129Y0051875D01*
X0087981Y0051914D01*
X0087834Y0051957D01*
X0087688Y0052004D01*
X0087543Y0052055D01*
X0087400Y0052110D01*
X0087258Y0052168D01*
X0087118Y0052230D01*
X0086979Y0052295D01*
X0086842Y0052364D01*
X0086707Y0052437D01*
X0086574Y0052513D01*
X0086443Y0052593D01*
X0086314Y0052675D01*
X0086187Y0052762D01*
X0086062Y0052851D01*
X0085940Y0052944D01*
X0085821Y0053040D01*
X0085703Y0053139D01*
X0085589Y0053240D01*
X0085477Y0053345D01*
X0085368Y0053453D01*
X0085262Y0053564D01*
X0085158Y0053677D01*
X0085058Y0053793D01*
X0084960Y0053911D01*
X0084866Y0054032D01*
X0084775Y0054155D01*
X0084687Y0054281D01*
X0084603Y0054409D01*
X0084521Y0054539D01*
X0084444Y0054671D01*
X0084369Y0054805D01*
X0084298Y0054941D01*
X0084231Y0055079D01*
X0084167Y0055219D01*
X0084107Y0055360D01*
X0084051Y0055502D01*
X0083998Y0055646D01*
X0083949Y0055792D01*
X0083904Y0055938D01*
X0083863Y0056086D01*
X0083826Y0056234D01*
X0083792Y0056384D01*
X0083762Y0056535D01*
X0083737Y0056686D01*
X0083715Y0056837D01*
X0083697Y0056990D01*
X0083683Y0057142D01*
X0083673Y0057295D01*
X0083667Y0057449D01*
X0083665Y0057602D01*
X0037426Y0070398D02*
X0037428Y0070545D01*
X0037434Y0070691D01*
X0037444Y0070837D01*
X0037458Y0070983D01*
X0037476Y0071129D01*
X0037497Y0071274D01*
X0037523Y0071418D01*
X0037553Y0071562D01*
X0037586Y0071704D01*
X0037623Y0071846D01*
X0037664Y0071987D01*
X0037709Y0072126D01*
X0037758Y0072265D01*
X0037810Y0072402D01*
X0037867Y0072537D01*
X0037926Y0072671D01*
X0037990Y0072803D01*
X0038057Y0072933D01*
X0038127Y0073062D01*
X0038201Y0073189D01*
X0038278Y0073313D01*
X0038359Y0073436D01*
X0038443Y0073556D01*
X0038530Y0073674D01*
X0038620Y0073789D01*
X0038713Y0073902D01*
X0038810Y0074013D01*
X0038909Y0074121D01*
X0039011Y0074226D01*
X0039116Y0074328D01*
X0039224Y0074427D01*
X0039335Y0074524D01*
X0039448Y0074617D01*
X0039563Y0074707D01*
X0039681Y0074794D01*
X0039801Y0074878D01*
X0039924Y0074959D01*
X0040048Y0075036D01*
X0040175Y0075110D01*
X0040304Y0075180D01*
X0040434Y0075247D01*
X0040566Y0075311D01*
X0040700Y0075370D01*
X0040835Y0075427D01*
X0040972Y0075479D01*
X0041111Y0075528D01*
X0041250Y0075573D01*
X0041391Y0075614D01*
X0041533Y0075651D01*
X0041675Y0075684D01*
X0041819Y0075714D01*
X0041963Y0075740D01*
X0042108Y0075761D01*
X0042254Y0075779D01*
X0042400Y0075793D01*
X0042546Y0075803D01*
X0042692Y0075809D01*
X0042839Y0075811D01*
X0042986Y0075809D01*
X0043132Y0075803D01*
X0043278Y0075793D01*
X0043424Y0075779D01*
X0043570Y0075761D01*
X0043715Y0075740D01*
X0043859Y0075714D01*
X0044003Y0075684D01*
X0044145Y0075651D01*
X0044287Y0075614D01*
X0044428Y0075573D01*
X0044567Y0075528D01*
X0044706Y0075479D01*
X0044843Y0075427D01*
X0044978Y0075370D01*
X0045112Y0075311D01*
X0045244Y0075247D01*
X0045374Y0075180D01*
X0045503Y0075110D01*
X0045630Y0075036D01*
X0045754Y0074959D01*
X0045877Y0074878D01*
X0045997Y0074794D01*
X0046115Y0074707D01*
X0046230Y0074617D01*
X0046343Y0074524D01*
X0046454Y0074427D01*
X0046562Y0074328D01*
X0046667Y0074226D01*
X0046769Y0074121D01*
X0046868Y0074013D01*
X0046965Y0073902D01*
X0047058Y0073789D01*
X0047148Y0073674D01*
X0047235Y0073556D01*
X0047319Y0073436D01*
X0047400Y0073313D01*
X0047477Y0073189D01*
X0047551Y0073062D01*
X0047621Y0072933D01*
X0047688Y0072803D01*
X0047752Y0072671D01*
X0047811Y0072537D01*
X0047868Y0072402D01*
X0047920Y0072265D01*
X0047969Y0072126D01*
X0048014Y0071987D01*
X0048055Y0071846D01*
X0048092Y0071704D01*
X0048125Y0071562D01*
X0048155Y0071418D01*
X0048181Y0071274D01*
X0048202Y0071129D01*
X0048220Y0070983D01*
X0048234Y0070837D01*
X0048244Y0070691D01*
X0048250Y0070545D01*
X0048252Y0070398D01*
X0048250Y0070251D01*
X0048244Y0070105D01*
X0048234Y0069959D01*
X0048220Y0069813D01*
X0048202Y0069667D01*
X0048181Y0069522D01*
X0048155Y0069378D01*
X0048125Y0069234D01*
X0048092Y0069092D01*
X0048055Y0068950D01*
X0048014Y0068809D01*
X0047969Y0068670D01*
X0047920Y0068531D01*
X0047868Y0068394D01*
X0047811Y0068259D01*
X0047752Y0068125D01*
X0047688Y0067993D01*
X0047621Y0067863D01*
X0047551Y0067734D01*
X0047477Y0067607D01*
X0047400Y0067483D01*
X0047319Y0067360D01*
X0047235Y0067240D01*
X0047148Y0067122D01*
X0047058Y0067007D01*
X0046965Y0066894D01*
X0046868Y0066783D01*
X0046769Y0066675D01*
X0046667Y0066570D01*
X0046562Y0066468D01*
X0046454Y0066369D01*
X0046343Y0066272D01*
X0046230Y0066179D01*
X0046115Y0066089D01*
X0045997Y0066002D01*
X0045877Y0065918D01*
X0045754Y0065837D01*
X0045630Y0065760D01*
X0045503Y0065686D01*
X0045374Y0065616D01*
X0045244Y0065549D01*
X0045112Y0065485D01*
X0044978Y0065426D01*
X0044843Y0065369D01*
X0044706Y0065317D01*
X0044567Y0065268D01*
X0044428Y0065223D01*
X0044287Y0065182D01*
X0044145Y0065145D01*
X0044003Y0065112D01*
X0043859Y0065082D01*
X0043715Y0065056D01*
X0043570Y0065035D01*
X0043424Y0065017D01*
X0043278Y0065003D01*
X0043132Y0064993D01*
X0042986Y0064987D01*
X0042839Y0064985D01*
X0042692Y0064987D01*
X0042546Y0064993D01*
X0042400Y0065003D01*
X0042254Y0065017D01*
X0042108Y0065035D01*
X0041963Y0065056D01*
X0041819Y0065082D01*
X0041675Y0065112D01*
X0041533Y0065145D01*
X0041391Y0065182D01*
X0041250Y0065223D01*
X0041111Y0065268D01*
X0040972Y0065317D01*
X0040835Y0065369D01*
X0040700Y0065426D01*
X0040566Y0065485D01*
X0040434Y0065549D01*
X0040304Y0065616D01*
X0040175Y0065686D01*
X0040048Y0065760D01*
X0039924Y0065837D01*
X0039801Y0065918D01*
X0039681Y0066002D01*
X0039563Y0066089D01*
X0039448Y0066179D01*
X0039335Y0066272D01*
X0039224Y0066369D01*
X0039116Y0066468D01*
X0039011Y0066570D01*
X0038909Y0066675D01*
X0038810Y0066783D01*
X0038713Y0066894D01*
X0038620Y0067007D01*
X0038530Y0067122D01*
X0038443Y0067240D01*
X0038359Y0067360D01*
X0038278Y0067483D01*
X0038201Y0067607D01*
X0038127Y0067734D01*
X0038057Y0067863D01*
X0037990Y0067993D01*
X0037926Y0068125D01*
X0037867Y0068259D01*
X0037810Y0068394D01*
X0037758Y0068531D01*
X0037709Y0068670D01*
X0037664Y0068809D01*
X0037623Y0068950D01*
X0037586Y0069092D01*
X0037553Y0069234D01*
X0037523Y0069378D01*
X0037497Y0069522D01*
X0037476Y0069667D01*
X0037458Y0069813D01*
X0037444Y0069959D01*
X0037434Y0070105D01*
X0037428Y0070251D01*
X0037426Y0070398D01*
X0083665Y0083193D02*
X0083667Y0083346D01*
X0083673Y0083500D01*
X0083683Y0083653D01*
X0083697Y0083805D01*
X0083715Y0083958D01*
X0083737Y0084109D01*
X0083762Y0084260D01*
X0083792Y0084411D01*
X0083826Y0084561D01*
X0083863Y0084709D01*
X0083904Y0084857D01*
X0083949Y0085003D01*
X0083998Y0085149D01*
X0084051Y0085293D01*
X0084107Y0085435D01*
X0084167Y0085576D01*
X0084231Y0085716D01*
X0084298Y0085854D01*
X0084369Y0085990D01*
X0084444Y0086124D01*
X0084521Y0086256D01*
X0084603Y0086386D01*
X0084687Y0086514D01*
X0084775Y0086640D01*
X0084866Y0086763D01*
X0084960Y0086884D01*
X0085058Y0087002D01*
X0085158Y0087118D01*
X0085262Y0087231D01*
X0085368Y0087342D01*
X0085477Y0087450D01*
X0085589Y0087555D01*
X0085703Y0087656D01*
X0085821Y0087755D01*
X0085940Y0087851D01*
X0086062Y0087944D01*
X0086187Y0088033D01*
X0086314Y0088120D01*
X0086443Y0088202D01*
X0086574Y0088282D01*
X0086707Y0088358D01*
X0086842Y0088431D01*
X0086979Y0088500D01*
X0087118Y0088565D01*
X0087258Y0088627D01*
X0087400Y0088685D01*
X0087543Y0088740D01*
X0087688Y0088791D01*
X0087834Y0088838D01*
X0087981Y0088881D01*
X0088129Y0088920D01*
X0088278Y0088956D01*
X0088428Y0088987D01*
X0088579Y0089015D01*
X0088730Y0089039D01*
X0088883Y0089059D01*
X0089035Y0089075D01*
X0089188Y0089087D01*
X0089341Y0089095D01*
X0089494Y0089099D01*
X0089648Y0089099D01*
X0089801Y0089095D01*
X0089954Y0089087D01*
X0090107Y0089075D01*
X0090259Y0089059D01*
X0090412Y0089039D01*
X0090563Y0089015D01*
X0090714Y0088987D01*
X0090864Y0088956D01*
X0091013Y0088920D01*
X0091161Y0088881D01*
X0091308Y0088838D01*
X0091454Y0088791D01*
X0091599Y0088740D01*
X0091742Y0088685D01*
X0091884Y0088627D01*
X0092024Y0088565D01*
X0092163Y0088500D01*
X0092300Y0088431D01*
X0092435Y0088358D01*
X0092568Y0088282D01*
X0092699Y0088202D01*
X0092828Y0088120D01*
X0092955Y0088033D01*
X0093080Y0087944D01*
X0093202Y0087851D01*
X0093321Y0087755D01*
X0093439Y0087656D01*
X0093553Y0087555D01*
X0093665Y0087450D01*
X0093774Y0087342D01*
X0093880Y0087231D01*
X0093984Y0087118D01*
X0094084Y0087002D01*
X0094182Y0086884D01*
X0094276Y0086763D01*
X0094367Y0086640D01*
X0094455Y0086514D01*
X0094539Y0086386D01*
X0094621Y0086256D01*
X0094698Y0086124D01*
X0094773Y0085990D01*
X0094844Y0085854D01*
X0094911Y0085716D01*
X0094975Y0085576D01*
X0095035Y0085435D01*
X0095091Y0085293D01*
X0095144Y0085149D01*
X0095193Y0085003D01*
X0095238Y0084857D01*
X0095279Y0084709D01*
X0095316Y0084561D01*
X0095350Y0084411D01*
X0095380Y0084260D01*
X0095405Y0084109D01*
X0095427Y0083958D01*
X0095445Y0083805D01*
X0095459Y0083653D01*
X0095469Y0083500D01*
X0095475Y0083346D01*
X0095477Y0083193D01*
X0095475Y0083040D01*
X0095469Y0082886D01*
X0095459Y0082733D01*
X0095445Y0082581D01*
X0095427Y0082428D01*
X0095405Y0082277D01*
X0095380Y0082126D01*
X0095350Y0081975D01*
X0095316Y0081825D01*
X0095279Y0081677D01*
X0095238Y0081529D01*
X0095193Y0081383D01*
X0095144Y0081237D01*
X0095091Y0081093D01*
X0095035Y0080951D01*
X0094975Y0080810D01*
X0094911Y0080670D01*
X0094844Y0080532D01*
X0094773Y0080396D01*
X0094698Y0080262D01*
X0094621Y0080130D01*
X0094539Y0080000D01*
X0094455Y0079872D01*
X0094367Y0079746D01*
X0094276Y0079623D01*
X0094182Y0079502D01*
X0094084Y0079384D01*
X0093984Y0079268D01*
X0093880Y0079155D01*
X0093774Y0079044D01*
X0093665Y0078936D01*
X0093553Y0078831D01*
X0093439Y0078730D01*
X0093321Y0078631D01*
X0093202Y0078535D01*
X0093080Y0078442D01*
X0092955Y0078353D01*
X0092828Y0078266D01*
X0092699Y0078184D01*
X0092568Y0078104D01*
X0092435Y0078028D01*
X0092300Y0077955D01*
X0092163Y0077886D01*
X0092024Y0077821D01*
X0091884Y0077759D01*
X0091742Y0077701D01*
X0091599Y0077646D01*
X0091454Y0077595D01*
X0091308Y0077548D01*
X0091161Y0077505D01*
X0091013Y0077466D01*
X0090864Y0077430D01*
X0090714Y0077399D01*
X0090563Y0077371D01*
X0090412Y0077347D01*
X0090259Y0077327D01*
X0090107Y0077311D01*
X0089954Y0077299D01*
X0089801Y0077291D01*
X0089648Y0077287D01*
X0089494Y0077287D01*
X0089341Y0077291D01*
X0089188Y0077299D01*
X0089035Y0077311D01*
X0088883Y0077327D01*
X0088730Y0077347D01*
X0088579Y0077371D01*
X0088428Y0077399D01*
X0088278Y0077430D01*
X0088129Y0077466D01*
X0087981Y0077505D01*
X0087834Y0077548D01*
X0087688Y0077595D01*
X0087543Y0077646D01*
X0087400Y0077701D01*
X0087258Y0077759D01*
X0087118Y0077821D01*
X0086979Y0077886D01*
X0086842Y0077955D01*
X0086707Y0078028D01*
X0086574Y0078104D01*
X0086443Y0078184D01*
X0086314Y0078266D01*
X0086187Y0078353D01*
X0086062Y0078442D01*
X0085940Y0078535D01*
X0085821Y0078631D01*
X0085703Y0078730D01*
X0085589Y0078831D01*
X0085477Y0078936D01*
X0085368Y0079044D01*
X0085262Y0079155D01*
X0085158Y0079268D01*
X0085058Y0079384D01*
X0084960Y0079502D01*
X0084866Y0079623D01*
X0084775Y0079746D01*
X0084687Y0079872D01*
X0084603Y0080000D01*
X0084521Y0080130D01*
X0084444Y0080262D01*
X0084369Y0080396D01*
X0084298Y0080532D01*
X0084231Y0080670D01*
X0084167Y0080810D01*
X0084107Y0080951D01*
X0084051Y0081093D01*
X0083998Y0081237D01*
X0083949Y0081383D01*
X0083904Y0081529D01*
X0083863Y0081677D01*
X0083826Y0081825D01*
X0083792Y0081975D01*
X0083762Y0082126D01*
X0083737Y0082277D01*
X0083715Y0082428D01*
X0083697Y0082581D01*
X0083683Y0082733D01*
X0083673Y0082886D01*
X0083667Y0083040D01*
X0083665Y0083193D01*
X0105830Y0095988D02*
X0105832Y0096141D01*
X0105838Y0096295D01*
X0105848Y0096448D01*
X0105862Y0096600D01*
X0105880Y0096753D01*
X0105902Y0096904D01*
X0105927Y0097055D01*
X0105957Y0097206D01*
X0105991Y0097356D01*
X0106028Y0097504D01*
X0106069Y0097652D01*
X0106114Y0097798D01*
X0106163Y0097944D01*
X0106216Y0098088D01*
X0106272Y0098230D01*
X0106332Y0098371D01*
X0106396Y0098511D01*
X0106463Y0098649D01*
X0106534Y0098785D01*
X0106609Y0098919D01*
X0106686Y0099051D01*
X0106768Y0099181D01*
X0106852Y0099309D01*
X0106940Y0099435D01*
X0107031Y0099558D01*
X0107125Y0099679D01*
X0107223Y0099797D01*
X0107323Y0099913D01*
X0107427Y0100026D01*
X0107533Y0100137D01*
X0107642Y0100245D01*
X0107754Y0100350D01*
X0107868Y0100451D01*
X0107986Y0100550D01*
X0108105Y0100646D01*
X0108227Y0100739D01*
X0108352Y0100828D01*
X0108479Y0100915D01*
X0108608Y0100997D01*
X0108739Y0101077D01*
X0108872Y0101153D01*
X0109007Y0101226D01*
X0109144Y0101295D01*
X0109283Y0101360D01*
X0109423Y0101422D01*
X0109565Y0101480D01*
X0109708Y0101535D01*
X0109853Y0101586D01*
X0109999Y0101633D01*
X0110146Y0101676D01*
X0110294Y0101715D01*
X0110443Y0101751D01*
X0110593Y0101782D01*
X0110744Y0101810D01*
X0110895Y0101834D01*
X0111048Y0101854D01*
X0111200Y0101870D01*
X0111353Y0101882D01*
X0111506Y0101890D01*
X0111659Y0101894D01*
X0111813Y0101894D01*
X0111966Y0101890D01*
X0112119Y0101882D01*
X0112272Y0101870D01*
X0112424Y0101854D01*
X0112577Y0101834D01*
X0112728Y0101810D01*
X0112879Y0101782D01*
X0113029Y0101751D01*
X0113178Y0101715D01*
X0113326Y0101676D01*
X0113473Y0101633D01*
X0113619Y0101586D01*
X0113764Y0101535D01*
X0113907Y0101480D01*
X0114049Y0101422D01*
X0114189Y0101360D01*
X0114328Y0101295D01*
X0114465Y0101226D01*
X0114600Y0101153D01*
X0114733Y0101077D01*
X0114864Y0100997D01*
X0114993Y0100915D01*
X0115120Y0100828D01*
X0115245Y0100739D01*
X0115367Y0100646D01*
X0115486Y0100550D01*
X0115604Y0100451D01*
X0115718Y0100350D01*
X0115830Y0100245D01*
X0115939Y0100137D01*
X0116045Y0100026D01*
X0116149Y0099913D01*
X0116249Y0099797D01*
X0116347Y0099679D01*
X0116441Y0099558D01*
X0116532Y0099435D01*
X0116620Y0099309D01*
X0116704Y0099181D01*
X0116786Y0099051D01*
X0116863Y0098919D01*
X0116938Y0098785D01*
X0117009Y0098649D01*
X0117076Y0098511D01*
X0117140Y0098371D01*
X0117200Y0098230D01*
X0117256Y0098088D01*
X0117309Y0097944D01*
X0117358Y0097798D01*
X0117403Y0097652D01*
X0117444Y0097504D01*
X0117481Y0097356D01*
X0117515Y0097206D01*
X0117545Y0097055D01*
X0117570Y0096904D01*
X0117592Y0096753D01*
X0117610Y0096600D01*
X0117624Y0096448D01*
X0117634Y0096295D01*
X0117640Y0096141D01*
X0117642Y0095988D01*
X0117640Y0095835D01*
X0117634Y0095681D01*
X0117624Y0095528D01*
X0117610Y0095376D01*
X0117592Y0095223D01*
X0117570Y0095072D01*
X0117545Y0094921D01*
X0117515Y0094770D01*
X0117481Y0094620D01*
X0117444Y0094472D01*
X0117403Y0094324D01*
X0117358Y0094178D01*
X0117309Y0094032D01*
X0117256Y0093888D01*
X0117200Y0093746D01*
X0117140Y0093605D01*
X0117076Y0093465D01*
X0117009Y0093327D01*
X0116938Y0093191D01*
X0116863Y0093057D01*
X0116786Y0092925D01*
X0116704Y0092795D01*
X0116620Y0092667D01*
X0116532Y0092541D01*
X0116441Y0092418D01*
X0116347Y0092297D01*
X0116249Y0092179D01*
X0116149Y0092063D01*
X0116045Y0091950D01*
X0115939Y0091839D01*
X0115830Y0091731D01*
X0115718Y0091626D01*
X0115604Y0091525D01*
X0115486Y0091426D01*
X0115367Y0091330D01*
X0115245Y0091237D01*
X0115120Y0091148D01*
X0114993Y0091061D01*
X0114864Y0090979D01*
X0114733Y0090899D01*
X0114600Y0090823D01*
X0114465Y0090750D01*
X0114328Y0090681D01*
X0114189Y0090616D01*
X0114049Y0090554D01*
X0113907Y0090496D01*
X0113764Y0090441D01*
X0113619Y0090390D01*
X0113473Y0090343D01*
X0113326Y0090300D01*
X0113178Y0090261D01*
X0113029Y0090225D01*
X0112879Y0090194D01*
X0112728Y0090166D01*
X0112577Y0090142D01*
X0112424Y0090122D01*
X0112272Y0090106D01*
X0112119Y0090094D01*
X0111966Y0090086D01*
X0111813Y0090082D01*
X0111659Y0090082D01*
X0111506Y0090086D01*
X0111353Y0090094D01*
X0111200Y0090106D01*
X0111048Y0090122D01*
X0110895Y0090142D01*
X0110744Y0090166D01*
X0110593Y0090194D01*
X0110443Y0090225D01*
X0110294Y0090261D01*
X0110146Y0090300D01*
X0109999Y0090343D01*
X0109853Y0090390D01*
X0109708Y0090441D01*
X0109565Y0090496D01*
X0109423Y0090554D01*
X0109283Y0090616D01*
X0109144Y0090681D01*
X0109007Y0090750D01*
X0108872Y0090823D01*
X0108739Y0090899D01*
X0108608Y0090979D01*
X0108479Y0091061D01*
X0108352Y0091148D01*
X0108227Y0091237D01*
X0108105Y0091330D01*
X0107986Y0091426D01*
X0107868Y0091525D01*
X0107754Y0091626D01*
X0107642Y0091731D01*
X0107533Y0091839D01*
X0107427Y0091950D01*
X0107323Y0092063D01*
X0107223Y0092179D01*
X0107125Y0092297D01*
X0107031Y0092418D01*
X0106940Y0092541D01*
X0106852Y0092667D01*
X0106768Y0092795D01*
X0106686Y0092925D01*
X0106609Y0093057D01*
X0106534Y0093191D01*
X0106463Y0093327D01*
X0106396Y0093465D01*
X0106332Y0093605D01*
X0106272Y0093746D01*
X0106216Y0093888D01*
X0106163Y0094032D01*
X0106114Y0094178D01*
X0106069Y0094324D01*
X0106028Y0094472D01*
X0105991Y0094620D01*
X0105957Y0094770D01*
X0105927Y0094921D01*
X0105902Y0095072D01*
X0105880Y0095223D01*
X0105862Y0095376D01*
X0105848Y0095528D01*
X0105838Y0095681D01*
X0105832Y0095835D01*
X0105830Y0095988D01*
X0127996Y0083193D02*
X0127998Y0083346D01*
X0128004Y0083500D01*
X0128014Y0083653D01*
X0128028Y0083805D01*
X0128046Y0083958D01*
X0128068Y0084109D01*
X0128093Y0084260D01*
X0128123Y0084411D01*
X0128157Y0084561D01*
X0128194Y0084709D01*
X0128235Y0084857D01*
X0128280Y0085003D01*
X0128329Y0085149D01*
X0128382Y0085293D01*
X0128438Y0085435D01*
X0128498Y0085576D01*
X0128562Y0085716D01*
X0128629Y0085854D01*
X0128700Y0085990D01*
X0128775Y0086124D01*
X0128852Y0086256D01*
X0128934Y0086386D01*
X0129018Y0086514D01*
X0129106Y0086640D01*
X0129197Y0086763D01*
X0129291Y0086884D01*
X0129389Y0087002D01*
X0129489Y0087118D01*
X0129593Y0087231D01*
X0129699Y0087342D01*
X0129808Y0087450D01*
X0129920Y0087555D01*
X0130034Y0087656D01*
X0130152Y0087755D01*
X0130271Y0087851D01*
X0130393Y0087944D01*
X0130518Y0088033D01*
X0130645Y0088120D01*
X0130774Y0088202D01*
X0130905Y0088282D01*
X0131038Y0088358D01*
X0131173Y0088431D01*
X0131310Y0088500D01*
X0131449Y0088565D01*
X0131589Y0088627D01*
X0131731Y0088685D01*
X0131874Y0088740D01*
X0132019Y0088791D01*
X0132165Y0088838D01*
X0132312Y0088881D01*
X0132460Y0088920D01*
X0132609Y0088956D01*
X0132759Y0088987D01*
X0132910Y0089015D01*
X0133061Y0089039D01*
X0133214Y0089059D01*
X0133366Y0089075D01*
X0133519Y0089087D01*
X0133672Y0089095D01*
X0133825Y0089099D01*
X0133979Y0089099D01*
X0134132Y0089095D01*
X0134285Y0089087D01*
X0134438Y0089075D01*
X0134590Y0089059D01*
X0134743Y0089039D01*
X0134894Y0089015D01*
X0135045Y0088987D01*
X0135195Y0088956D01*
X0135344Y0088920D01*
X0135492Y0088881D01*
X0135639Y0088838D01*
X0135785Y0088791D01*
X0135930Y0088740D01*
X0136073Y0088685D01*
X0136215Y0088627D01*
X0136355Y0088565D01*
X0136494Y0088500D01*
X0136631Y0088431D01*
X0136766Y0088358D01*
X0136899Y0088282D01*
X0137030Y0088202D01*
X0137159Y0088120D01*
X0137286Y0088033D01*
X0137411Y0087944D01*
X0137533Y0087851D01*
X0137652Y0087755D01*
X0137770Y0087656D01*
X0137884Y0087555D01*
X0137996Y0087450D01*
X0138105Y0087342D01*
X0138211Y0087231D01*
X0138315Y0087118D01*
X0138415Y0087002D01*
X0138513Y0086884D01*
X0138607Y0086763D01*
X0138698Y0086640D01*
X0138786Y0086514D01*
X0138870Y0086386D01*
X0138952Y0086256D01*
X0139029Y0086124D01*
X0139104Y0085990D01*
X0139175Y0085854D01*
X0139242Y0085716D01*
X0139306Y0085576D01*
X0139366Y0085435D01*
X0139422Y0085293D01*
X0139475Y0085149D01*
X0139524Y0085003D01*
X0139569Y0084857D01*
X0139610Y0084709D01*
X0139647Y0084561D01*
X0139681Y0084411D01*
X0139711Y0084260D01*
X0139736Y0084109D01*
X0139758Y0083958D01*
X0139776Y0083805D01*
X0139790Y0083653D01*
X0139800Y0083500D01*
X0139806Y0083346D01*
X0139808Y0083193D01*
X0139806Y0083040D01*
X0139800Y0082886D01*
X0139790Y0082733D01*
X0139776Y0082581D01*
X0139758Y0082428D01*
X0139736Y0082277D01*
X0139711Y0082126D01*
X0139681Y0081975D01*
X0139647Y0081825D01*
X0139610Y0081677D01*
X0139569Y0081529D01*
X0139524Y0081383D01*
X0139475Y0081237D01*
X0139422Y0081093D01*
X0139366Y0080951D01*
X0139306Y0080810D01*
X0139242Y0080670D01*
X0139175Y0080532D01*
X0139104Y0080396D01*
X0139029Y0080262D01*
X0138952Y0080130D01*
X0138870Y0080000D01*
X0138786Y0079872D01*
X0138698Y0079746D01*
X0138607Y0079623D01*
X0138513Y0079502D01*
X0138415Y0079384D01*
X0138315Y0079268D01*
X0138211Y0079155D01*
X0138105Y0079044D01*
X0137996Y0078936D01*
X0137884Y0078831D01*
X0137770Y0078730D01*
X0137652Y0078631D01*
X0137533Y0078535D01*
X0137411Y0078442D01*
X0137286Y0078353D01*
X0137159Y0078266D01*
X0137030Y0078184D01*
X0136899Y0078104D01*
X0136766Y0078028D01*
X0136631Y0077955D01*
X0136494Y0077886D01*
X0136355Y0077821D01*
X0136215Y0077759D01*
X0136073Y0077701D01*
X0135930Y0077646D01*
X0135785Y0077595D01*
X0135639Y0077548D01*
X0135492Y0077505D01*
X0135344Y0077466D01*
X0135195Y0077430D01*
X0135045Y0077399D01*
X0134894Y0077371D01*
X0134743Y0077347D01*
X0134590Y0077327D01*
X0134438Y0077311D01*
X0134285Y0077299D01*
X0134132Y0077291D01*
X0133979Y0077287D01*
X0133825Y0077287D01*
X0133672Y0077291D01*
X0133519Y0077299D01*
X0133366Y0077311D01*
X0133214Y0077327D01*
X0133061Y0077347D01*
X0132910Y0077371D01*
X0132759Y0077399D01*
X0132609Y0077430D01*
X0132460Y0077466D01*
X0132312Y0077505D01*
X0132165Y0077548D01*
X0132019Y0077595D01*
X0131874Y0077646D01*
X0131731Y0077701D01*
X0131589Y0077759D01*
X0131449Y0077821D01*
X0131310Y0077886D01*
X0131173Y0077955D01*
X0131038Y0078028D01*
X0130905Y0078104D01*
X0130774Y0078184D01*
X0130645Y0078266D01*
X0130518Y0078353D01*
X0130393Y0078442D01*
X0130271Y0078535D01*
X0130152Y0078631D01*
X0130034Y0078730D01*
X0129920Y0078831D01*
X0129808Y0078936D01*
X0129699Y0079044D01*
X0129593Y0079155D01*
X0129489Y0079268D01*
X0129389Y0079384D01*
X0129291Y0079502D01*
X0129197Y0079623D01*
X0129106Y0079746D01*
X0129018Y0079872D01*
X0128934Y0080000D01*
X0128852Y0080130D01*
X0128775Y0080262D01*
X0128700Y0080396D01*
X0128629Y0080532D01*
X0128562Y0080670D01*
X0128498Y0080810D01*
X0128438Y0080951D01*
X0128382Y0081093D01*
X0128329Y0081237D01*
X0128280Y0081383D01*
X0128235Y0081529D01*
X0128194Y0081677D01*
X0128157Y0081825D01*
X0128123Y0081975D01*
X0128093Y0082126D01*
X0128068Y0082277D01*
X0128046Y0082428D01*
X0128028Y0082581D01*
X0128014Y0082733D01*
X0128004Y0082886D01*
X0127998Y0083040D01*
X0127996Y0083193D01*
X0127996Y0057602D02*
X0127998Y0057755D01*
X0128004Y0057909D01*
X0128014Y0058062D01*
X0128028Y0058214D01*
X0128046Y0058367D01*
X0128068Y0058518D01*
X0128093Y0058669D01*
X0128123Y0058820D01*
X0128157Y0058970D01*
X0128194Y0059118D01*
X0128235Y0059266D01*
X0128280Y0059412D01*
X0128329Y0059558D01*
X0128382Y0059702D01*
X0128438Y0059844D01*
X0128498Y0059985D01*
X0128562Y0060125D01*
X0128629Y0060263D01*
X0128700Y0060399D01*
X0128775Y0060533D01*
X0128852Y0060665D01*
X0128934Y0060795D01*
X0129018Y0060923D01*
X0129106Y0061049D01*
X0129197Y0061172D01*
X0129291Y0061293D01*
X0129389Y0061411D01*
X0129489Y0061527D01*
X0129593Y0061640D01*
X0129699Y0061751D01*
X0129808Y0061859D01*
X0129920Y0061964D01*
X0130034Y0062065D01*
X0130152Y0062164D01*
X0130271Y0062260D01*
X0130393Y0062353D01*
X0130518Y0062442D01*
X0130645Y0062529D01*
X0130774Y0062611D01*
X0130905Y0062691D01*
X0131038Y0062767D01*
X0131173Y0062840D01*
X0131310Y0062909D01*
X0131449Y0062974D01*
X0131589Y0063036D01*
X0131731Y0063094D01*
X0131874Y0063149D01*
X0132019Y0063200D01*
X0132165Y0063247D01*
X0132312Y0063290D01*
X0132460Y0063329D01*
X0132609Y0063365D01*
X0132759Y0063396D01*
X0132910Y0063424D01*
X0133061Y0063448D01*
X0133214Y0063468D01*
X0133366Y0063484D01*
X0133519Y0063496D01*
X0133672Y0063504D01*
X0133825Y0063508D01*
X0133979Y0063508D01*
X0134132Y0063504D01*
X0134285Y0063496D01*
X0134438Y0063484D01*
X0134590Y0063468D01*
X0134743Y0063448D01*
X0134894Y0063424D01*
X0135045Y0063396D01*
X0135195Y0063365D01*
X0135344Y0063329D01*
X0135492Y0063290D01*
X0135639Y0063247D01*
X0135785Y0063200D01*
X0135930Y0063149D01*
X0136073Y0063094D01*
X0136215Y0063036D01*
X0136355Y0062974D01*
X0136494Y0062909D01*
X0136631Y0062840D01*
X0136766Y0062767D01*
X0136899Y0062691D01*
X0137030Y0062611D01*
X0137159Y0062529D01*
X0137286Y0062442D01*
X0137411Y0062353D01*
X0137533Y0062260D01*
X0137652Y0062164D01*
X0137770Y0062065D01*
X0137884Y0061964D01*
X0137996Y0061859D01*
X0138105Y0061751D01*
X0138211Y0061640D01*
X0138315Y0061527D01*
X0138415Y0061411D01*
X0138513Y0061293D01*
X0138607Y0061172D01*
X0138698Y0061049D01*
X0138786Y0060923D01*
X0138870Y0060795D01*
X0138952Y0060665D01*
X0139029Y0060533D01*
X0139104Y0060399D01*
X0139175Y0060263D01*
X0139242Y0060125D01*
X0139306Y0059985D01*
X0139366Y0059844D01*
X0139422Y0059702D01*
X0139475Y0059558D01*
X0139524Y0059412D01*
X0139569Y0059266D01*
X0139610Y0059118D01*
X0139647Y0058970D01*
X0139681Y0058820D01*
X0139711Y0058669D01*
X0139736Y0058518D01*
X0139758Y0058367D01*
X0139776Y0058214D01*
X0139790Y0058062D01*
X0139800Y0057909D01*
X0139806Y0057755D01*
X0139808Y0057602D01*
X0139806Y0057449D01*
X0139800Y0057295D01*
X0139790Y0057142D01*
X0139776Y0056990D01*
X0139758Y0056837D01*
X0139736Y0056686D01*
X0139711Y0056535D01*
X0139681Y0056384D01*
X0139647Y0056234D01*
X0139610Y0056086D01*
X0139569Y0055938D01*
X0139524Y0055792D01*
X0139475Y0055646D01*
X0139422Y0055502D01*
X0139366Y0055360D01*
X0139306Y0055219D01*
X0139242Y0055079D01*
X0139175Y0054941D01*
X0139104Y0054805D01*
X0139029Y0054671D01*
X0138952Y0054539D01*
X0138870Y0054409D01*
X0138786Y0054281D01*
X0138698Y0054155D01*
X0138607Y0054032D01*
X0138513Y0053911D01*
X0138415Y0053793D01*
X0138315Y0053677D01*
X0138211Y0053564D01*
X0138105Y0053453D01*
X0137996Y0053345D01*
X0137884Y0053240D01*
X0137770Y0053139D01*
X0137652Y0053040D01*
X0137533Y0052944D01*
X0137411Y0052851D01*
X0137286Y0052762D01*
X0137159Y0052675D01*
X0137030Y0052593D01*
X0136899Y0052513D01*
X0136766Y0052437D01*
X0136631Y0052364D01*
X0136494Y0052295D01*
X0136355Y0052230D01*
X0136215Y0052168D01*
X0136073Y0052110D01*
X0135930Y0052055D01*
X0135785Y0052004D01*
X0135639Y0051957D01*
X0135492Y0051914D01*
X0135344Y0051875D01*
X0135195Y0051839D01*
X0135045Y0051808D01*
X0134894Y0051780D01*
X0134743Y0051756D01*
X0134590Y0051736D01*
X0134438Y0051720D01*
X0134285Y0051708D01*
X0134132Y0051700D01*
X0133979Y0051696D01*
X0133825Y0051696D01*
X0133672Y0051700D01*
X0133519Y0051708D01*
X0133366Y0051720D01*
X0133214Y0051736D01*
X0133061Y0051756D01*
X0132910Y0051780D01*
X0132759Y0051808D01*
X0132609Y0051839D01*
X0132460Y0051875D01*
X0132312Y0051914D01*
X0132165Y0051957D01*
X0132019Y0052004D01*
X0131874Y0052055D01*
X0131731Y0052110D01*
X0131589Y0052168D01*
X0131449Y0052230D01*
X0131310Y0052295D01*
X0131173Y0052364D01*
X0131038Y0052437D01*
X0130905Y0052513D01*
X0130774Y0052593D01*
X0130645Y0052675D01*
X0130518Y0052762D01*
X0130393Y0052851D01*
X0130271Y0052944D01*
X0130152Y0053040D01*
X0130034Y0053139D01*
X0129920Y0053240D01*
X0129808Y0053345D01*
X0129699Y0053453D01*
X0129593Y0053564D01*
X0129489Y0053677D01*
X0129389Y0053793D01*
X0129291Y0053911D01*
X0129197Y0054032D01*
X0129106Y0054155D01*
X0129018Y0054281D01*
X0128934Y0054409D01*
X0128852Y0054539D01*
X0128775Y0054671D01*
X0128700Y0054805D01*
X0128629Y0054941D01*
X0128562Y0055079D01*
X0128498Y0055219D01*
X0128438Y0055360D01*
X0128382Y0055502D01*
X0128329Y0055646D01*
X0128280Y0055792D01*
X0128235Y0055938D01*
X0128194Y0056086D01*
X0128157Y0056234D01*
X0128123Y0056384D01*
X0128093Y0056535D01*
X0128068Y0056686D01*
X0128046Y0056837D01*
X0128028Y0056990D01*
X0128014Y0057142D01*
X0128004Y0057295D01*
X0127998Y0057449D01*
X0127996Y0057602D01*
D11*
X0078429Y0099394D02*
X0075929Y0096894D01*
X0070929Y0096894D01*
X0068429Y0099394D01*
X0065929Y0096894D01*
X0060929Y0096894D01*
X0058429Y0099394D01*
X0058429Y0104394D01*
X0060929Y0106894D01*
X0065929Y0106894D01*
X0068429Y0104394D01*
X0070929Y0106894D01*
X0075929Y0106894D01*
X0078429Y0104394D01*
X0078429Y0099394D01*
X0068429Y0099394D02*
X0068429Y0104394D01*
X0058744Y0104394D02*
X0058744Y0099394D01*
X0056244Y0096894D01*
X0051244Y0096894D01*
X0048744Y0099394D01*
X0046244Y0096894D01*
X0041244Y0096894D01*
X0038744Y0099394D01*
X0038744Y0104394D01*
X0041244Y0106894D01*
X0046244Y0106894D01*
X0048744Y0104394D01*
X0051244Y0106894D01*
X0056244Y0106894D01*
X0058744Y0104394D01*
X0048744Y0104394D02*
X0048744Y0099394D01*
D12*
X0045594Y0021579D02*
X0045594Y0010161D01*
X0047957Y0010161D02*
X0047957Y0021579D01*
X0045594Y0021579D01*
X0069217Y0021579D02*
X0069217Y0010161D01*
X0071579Y0010161D02*
X0071579Y0021579D01*
X0069217Y0021579D01*
X0062130Y0036146D02*
X0062130Y0040476D01*
X0061736Y0040476D01*
X0055437Y0040476D02*
X0055437Y0036146D01*
X0038508Y0036146D01*
X0038508Y0040476D01*
X0038114Y0040476D01*
X0062130Y0036146D02*
X0079059Y0036146D01*
X0079059Y0040476D01*
X0075876Y0089944D02*
X0075876Y0094448D01*
X0074375Y0094448D02*
X0077378Y0094448D01*
X0072774Y0094448D02*
X0072774Y0090694D01*
X0072023Y0089944D01*
X0070522Y0089944D01*
X0069771Y0090694D01*
X0069771Y0094448D01*
X0068170Y0093697D02*
X0067419Y0094448D01*
X0065918Y0094448D01*
X0065167Y0093697D01*
X0065167Y0090694D01*
X0065918Y0089944D01*
X0067419Y0089944D01*
X0068170Y0090694D01*
X0068170Y0093697D01*
X0063566Y0092196D02*
X0060563Y0092196D01*
X0058962Y0092196D02*
X0058211Y0091445D01*
X0055959Y0091445D01*
X0055959Y0089944D02*
X0055959Y0094448D01*
X0058211Y0094448D01*
X0058962Y0093697D01*
X0058962Y0092196D01*
X0053607Y0090694D02*
X0053607Y0094448D01*
X0052857Y0094448D02*
X0054358Y0094448D01*
X0053607Y0090694D02*
X0052857Y0089944D01*
X0052106Y0089944D01*
X0051356Y0090694D01*
X0050154Y0109344D02*
X0048653Y0109344D01*
X0047902Y0110094D01*
X0047902Y0113848D01*
X0046301Y0113097D02*
X0045550Y0113848D01*
X0044049Y0113848D01*
X0043298Y0113097D01*
X0043298Y0110094D01*
X0044049Y0109344D01*
X0045550Y0109344D01*
X0046301Y0110094D01*
X0046301Y0113097D01*
X0050905Y0113848D02*
X0050905Y0110094D01*
X0050154Y0109344D01*
X0054007Y0109344D02*
X0054007Y0113848D01*
X0052506Y0113848D02*
X0055508Y0113848D01*
X0041697Y0113848D02*
X0041697Y0110845D01*
X0040195Y0109344D01*
X0038694Y0110845D01*
X0038694Y0113848D01*
D13*
X0245201Y0074728D02*
X0245988Y0074728D01*
X0245201Y0073941D01*
X0245201Y0074728D01*
X0245201Y0074696D02*
X0245955Y0074696D01*
X0245950Y0074690D02*
X0245950Y0074728D01*
X0245754Y0074728D02*
X0245754Y0074495D01*
X0245760Y0074500D02*
X0245201Y0074500D01*
X0245201Y0074305D02*
X0245565Y0074305D01*
X0245559Y0074299D02*
X0245559Y0074728D01*
X0245364Y0074728D02*
X0245364Y0074104D01*
X0245369Y0074110D02*
X0245201Y0074110D01*
X0245594Y0074335D02*
X0245594Y0066461D01*
X0253469Y0066461D01*
X0253469Y0074335D01*
X0245594Y0074335D01*
X0264886Y0074305D02*
X0265250Y0074305D01*
X0265280Y0074335D02*
X0265280Y0066461D01*
X0273154Y0066461D01*
X0273154Y0074335D01*
X0265280Y0074335D01*
X0265291Y0074346D02*
X0265291Y0074728D01*
X0265486Y0074728D02*
X0265486Y0074541D01*
X0265445Y0074500D02*
X0264886Y0074500D01*
X0264886Y0074696D02*
X0265640Y0074696D01*
X0265673Y0074728D02*
X0264886Y0074728D01*
X0264886Y0073941D01*
X0265673Y0074728D01*
X0265095Y0074728D02*
X0265095Y0074150D01*
X0265054Y0074110D02*
X0264886Y0074110D01*
X0264900Y0073955D02*
X0264900Y0074728D01*
X0284571Y0074728D02*
X0285358Y0074728D01*
X0284571Y0073941D01*
X0284571Y0074728D01*
X0284571Y0074696D02*
X0285326Y0074696D01*
X0285217Y0074728D02*
X0285217Y0074588D01*
X0285130Y0074500D02*
X0284571Y0074500D01*
X0284571Y0074305D02*
X0284935Y0074305D01*
X0284965Y0074335D02*
X0284965Y0066461D01*
X0292839Y0066461D01*
X0292839Y0074335D01*
X0284965Y0074335D01*
X0285022Y0074392D02*
X0285022Y0074728D01*
X0284827Y0074728D02*
X0284827Y0074197D01*
X0284739Y0074110D02*
X0284571Y0074110D01*
X0284631Y0074001D02*
X0284631Y0074728D01*
X0304256Y0074728D02*
X0305043Y0074728D01*
X0304256Y0073941D01*
X0304256Y0074728D01*
X0304256Y0074696D02*
X0305011Y0074696D01*
X0304949Y0074728D02*
X0304949Y0074634D01*
X0304815Y0074500D02*
X0304256Y0074500D01*
X0304256Y0074305D02*
X0304620Y0074305D01*
X0304650Y0074335D02*
X0304650Y0066461D01*
X0312524Y0066461D01*
X0312524Y0074335D01*
X0304650Y0074335D01*
X0304558Y0074243D02*
X0304558Y0074728D01*
X0304363Y0074728D02*
X0304363Y0074048D01*
X0304424Y0074110D02*
X0304256Y0074110D01*
X0304754Y0074439D02*
X0304754Y0074728D01*
X0323941Y0074728D02*
X0324728Y0074728D01*
X0323941Y0073941D01*
X0323941Y0074728D01*
X0323941Y0074696D02*
X0324696Y0074696D01*
X0324680Y0074680D02*
X0324680Y0074728D01*
X0324485Y0074728D02*
X0324485Y0074485D01*
X0324500Y0074500D02*
X0323941Y0074500D01*
X0323941Y0074305D02*
X0324305Y0074305D01*
X0324290Y0074290D02*
X0324290Y0074728D01*
X0324094Y0074728D02*
X0324094Y0074094D01*
X0324110Y0074110D02*
X0323941Y0074110D01*
X0324335Y0074335D02*
X0324335Y0066461D01*
X0332209Y0066461D01*
X0332209Y0074335D01*
X0324335Y0074335D01*
X0343626Y0074305D02*
X0343990Y0074305D01*
X0344020Y0074335D02*
X0344020Y0066461D01*
X0351894Y0066461D01*
X0351894Y0074335D01*
X0344020Y0074335D01*
X0344021Y0074336D02*
X0344021Y0074728D01*
X0343826Y0074728D02*
X0343826Y0074141D01*
X0343795Y0074110D02*
X0343626Y0074110D01*
X0343631Y0073946D02*
X0343631Y0074728D01*
X0343626Y0074728D02*
X0344413Y0074728D01*
X0343626Y0073941D01*
X0343626Y0074728D01*
X0343626Y0074696D02*
X0344381Y0074696D01*
X0344412Y0074727D02*
X0344412Y0074728D01*
X0344217Y0074728D02*
X0344217Y0074532D01*
X0344185Y0074500D02*
X0343626Y0074500D01*
X0363311Y0074500D02*
X0363870Y0074500D01*
X0363948Y0074578D02*
X0363948Y0074728D01*
X0364066Y0074696D02*
X0363311Y0074696D01*
X0363311Y0074728D02*
X0364098Y0074728D01*
X0363311Y0073941D01*
X0363311Y0074728D01*
X0363362Y0074728D02*
X0363362Y0073992D01*
X0363311Y0074110D02*
X0363480Y0074110D01*
X0363557Y0074187D02*
X0363557Y0074728D01*
X0363753Y0074728D02*
X0363753Y0074383D01*
X0363705Y0074335D02*
X0363705Y0066461D01*
X0371579Y0066461D01*
X0371579Y0074335D01*
X0363705Y0074335D01*
X0363675Y0074305D02*
X0363311Y0074305D01*
X0382996Y0074305D02*
X0383360Y0074305D01*
X0383390Y0074335D02*
X0383390Y0066461D01*
X0391264Y0066461D01*
X0391264Y0074335D01*
X0383390Y0074335D01*
X0383484Y0074429D02*
X0383484Y0074728D01*
X0383289Y0074728D02*
X0383289Y0074234D01*
X0383165Y0074110D02*
X0382996Y0074110D01*
X0383094Y0074039D02*
X0383094Y0074728D01*
X0382996Y0074728D02*
X0383783Y0074728D01*
X0382996Y0073941D01*
X0382996Y0074728D01*
X0382996Y0074696D02*
X0383751Y0074696D01*
X0383680Y0074728D02*
X0383680Y0074625D01*
X0383555Y0074500D02*
X0382996Y0074500D01*
D14*
X0382660Y0074531D02*
X0382660Y0072761D01*
X0381480Y0074531D01*
X0381480Y0072761D01*
X0380862Y0072761D02*
X0380272Y0072761D01*
X0380567Y0072761D02*
X0380567Y0074531D01*
X0380272Y0074531D02*
X0380862Y0074531D01*
X0380306Y0074335D02*
X0379126Y0074335D01*
X0379716Y0074335D02*
X0379716Y0072565D01*
X0379639Y0072466D02*
X0378459Y0072466D01*
X0378198Y0072565D02*
X0378493Y0072860D01*
X0378493Y0074335D01*
X0377827Y0074236D02*
X0377532Y0074531D01*
X0376647Y0074531D01*
X0376647Y0072761D01*
X0377532Y0072761D01*
X0377827Y0073056D01*
X0377827Y0074236D01*
X0377313Y0074335D02*
X0377313Y0072860D01*
X0377608Y0072565D01*
X0378198Y0072565D01*
X0378198Y0071283D02*
X0378493Y0070988D01*
X0378493Y0069808D01*
X0378198Y0069513D01*
X0377608Y0069513D01*
X0377313Y0069808D01*
X0377313Y0070988D01*
X0377608Y0071283D01*
X0378198Y0071283D01*
X0379126Y0071283D02*
X0379126Y0069808D01*
X0379421Y0069513D01*
X0380011Y0069513D01*
X0380306Y0069808D01*
X0380306Y0071283D01*
X0380272Y0071283D02*
X0380862Y0071283D01*
X0380938Y0071283D02*
X0382118Y0071283D01*
X0382660Y0071283D02*
X0382660Y0069513D01*
X0381480Y0071283D01*
X0381480Y0069513D01*
X0381528Y0069513D02*
X0381528Y0071283D01*
X0380567Y0071283D02*
X0380567Y0069513D01*
X0380272Y0069513D02*
X0380862Y0069513D01*
X0379639Y0069218D02*
X0378459Y0069218D01*
X0377827Y0069513D02*
X0376647Y0069513D01*
X0376647Y0071283D01*
X0376014Y0070988D02*
X0375719Y0071283D01*
X0375129Y0071283D01*
X0374834Y0070988D01*
X0374834Y0069808D01*
X0375129Y0069513D01*
X0375719Y0069513D01*
X0376014Y0069808D01*
X0375501Y0069218D02*
X0376681Y0069218D01*
X0374868Y0069513D02*
X0373688Y0069513D01*
X0373688Y0071283D01*
X0373056Y0070988D02*
X0372761Y0071283D01*
X0372171Y0071283D01*
X0371876Y0070988D01*
X0371876Y0069808D01*
X0372171Y0069513D01*
X0372761Y0069513D01*
X0373056Y0069808D01*
X0373252Y0068134D02*
X0372072Y0068134D01*
X0372072Y0067249D01*
X0372662Y0067544D01*
X0372957Y0067544D01*
X0373252Y0067249D01*
X0373252Y0066659D01*
X0372957Y0066364D01*
X0372367Y0066364D01*
X0372072Y0066659D01*
X0373885Y0066954D02*
X0374475Y0066364D01*
X0375065Y0066954D01*
X0375065Y0068134D01*
X0373885Y0068134D02*
X0373885Y0066954D01*
X0377855Y0066462D02*
X0377855Y0067642D01*
X0378150Y0067937D01*
X0378740Y0067937D01*
X0379035Y0067642D01*
X0379035Y0067052D02*
X0378445Y0067052D01*
X0379035Y0067052D02*
X0379035Y0066462D01*
X0378740Y0066167D01*
X0378150Y0066167D01*
X0377855Y0066462D01*
X0379668Y0066167D02*
X0379668Y0067937D01*
X0380848Y0066167D01*
X0380848Y0067937D01*
X0381480Y0067937D02*
X0382365Y0067937D01*
X0382660Y0067642D01*
X0382660Y0066462D01*
X0382365Y0066167D01*
X0381480Y0066167D01*
X0381480Y0067937D01*
X0391561Y0069808D02*
X0391856Y0069513D01*
X0392446Y0069513D01*
X0392741Y0069808D01*
X0393373Y0069513D02*
X0394553Y0069513D01*
X0395186Y0069218D02*
X0396366Y0069218D01*
X0396998Y0069808D02*
X0397293Y0069513D01*
X0397883Y0069513D01*
X0398178Y0069808D01*
X0398178Y0070988D01*
X0397883Y0071283D01*
X0397293Y0071283D01*
X0396998Y0070988D01*
X0396998Y0069808D01*
X0398811Y0069808D02*
X0399106Y0069513D01*
X0399696Y0069513D01*
X0399991Y0069808D01*
X0399991Y0071283D01*
X0400623Y0071283D02*
X0401803Y0071283D01*
X0401213Y0071283D02*
X0401213Y0069513D01*
X0398811Y0069808D02*
X0398811Y0071283D01*
X0399401Y0072565D02*
X0399401Y0074335D01*
X0398811Y0074335D02*
X0399991Y0074335D01*
X0398178Y0074335D02*
X0398178Y0072860D01*
X0397883Y0072565D01*
X0397293Y0072565D01*
X0396998Y0072860D01*
X0396998Y0074335D01*
X0396366Y0074040D02*
X0396071Y0074335D01*
X0395481Y0074335D01*
X0395186Y0074040D01*
X0395186Y0072860D01*
X0395481Y0072565D01*
X0396071Y0072565D01*
X0396366Y0072860D01*
X0396366Y0074040D01*
X0394553Y0072270D02*
X0393373Y0072270D01*
X0392741Y0072860D02*
X0392741Y0074040D01*
X0392446Y0074335D01*
X0391561Y0074335D01*
X0391561Y0072565D01*
X0392446Y0072565D01*
X0392741Y0072860D01*
X0392446Y0071283D02*
X0391856Y0071283D01*
X0391561Y0070988D01*
X0391561Y0069808D01*
X0392741Y0070988D02*
X0392446Y0071283D01*
X0393373Y0071283D02*
X0393373Y0069513D01*
X0393570Y0068134D02*
X0393570Y0066954D01*
X0394160Y0066364D01*
X0394750Y0066954D01*
X0394750Y0068134D01*
X0392937Y0068134D02*
X0391757Y0068134D01*
X0391757Y0067249D01*
X0392347Y0067544D01*
X0392642Y0067544D01*
X0392937Y0067249D01*
X0392937Y0066659D01*
X0392642Y0066364D01*
X0392052Y0066364D01*
X0391757Y0066659D01*
X0376681Y0072860D02*
X0376681Y0074040D01*
X0376386Y0074335D01*
X0375796Y0074335D01*
X0375501Y0074040D01*
X0375501Y0072860D01*
X0375796Y0072565D01*
X0376386Y0072565D01*
X0376681Y0072860D01*
X0374868Y0072270D02*
X0373688Y0072270D01*
X0373056Y0072860D02*
X0373056Y0074040D01*
X0372761Y0074335D01*
X0371876Y0074335D01*
X0371876Y0072565D01*
X0372761Y0072565D01*
X0373056Y0072860D01*
X0362975Y0072761D02*
X0362975Y0074531D01*
X0361795Y0074531D02*
X0362975Y0072761D01*
X0361795Y0072761D02*
X0361795Y0074531D01*
X0361177Y0074531D02*
X0360587Y0074531D01*
X0360621Y0074335D02*
X0359441Y0074335D01*
X0360031Y0074335D02*
X0360031Y0072565D01*
X0359954Y0072466D02*
X0358774Y0072466D01*
X0358513Y0072565D02*
X0358808Y0072860D01*
X0358808Y0074335D01*
X0358142Y0074236D02*
X0357847Y0074531D01*
X0356962Y0074531D01*
X0356962Y0072761D01*
X0357847Y0072761D01*
X0358142Y0073056D01*
X0358142Y0074236D01*
X0357628Y0074335D02*
X0357628Y0072860D01*
X0357923Y0072565D01*
X0358513Y0072565D01*
X0358513Y0071283D02*
X0358808Y0070988D01*
X0358808Y0069808D01*
X0358513Y0069513D01*
X0357923Y0069513D01*
X0357628Y0069808D01*
X0357628Y0070988D01*
X0357923Y0071283D01*
X0358513Y0071283D01*
X0359441Y0071283D02*
X0359441Y0069808D01*
X0359736Y0069513D01*
X0360326Y0069513D01*
X0360621Y0069808D01*
X0360621Y0071283D01*
X0360587Y0071283D02*
X0361177Y0071283D01*
X0361253Y0071283D02*
X0362433Y0071283D01*
X0362975Y0071283D02*
X0362975Y0069513D01*
X0361795Y0071283D01*
X0361795Y0069513D01*
X0361843Y0069513D02*
X0361843Y0071283D01*
X0360882Y0071283D02*
X0360882Y0069513D01*
X0360587Y0069513D02*
X0361177Y0069513D01*
X0359954Y0069218D02*
X0358774Y0069218D01*
X0358142Y0069513D02*
X0356962Y0069513D01*
X0356962Y0071283D01*
X0356329Y0070988D02*
X0356034Y0071283D01*
X0355444Y0071283D01*
X0355149Y0070988D01*
X0355149Y0069808D01*
X0355444Y0069513D01*
X0356034Y0069513D01*
X0356329Y0069808D01*
X0355816Y0069218D02*
X0356996Y0069218D01*
X0355183Y0069513D02*
X0354003Y0069513D01*
X0354003Y0071283D01*
X0353371Y0070988D02*
X0353076Y0071283D01*
X0352486Y0071283D01*
X0352191Y0070988D01*
X0352191Y0069808D01*
X0352486Y0069513D01*
X0353076Y0069513D01*
X0353371Y0069808D01*
X0353567Y0068134D02*
X0352387Y0068134D01*
X0352387Y0067249D01*
X0352977Y0067544D01*
X0353272Y0067544D01*
X0353567Y0067249D01*
X0353567Y0066659D01*
X0353272Y0066364D01*
X0352682Y0066364D01*
X0352387Y0066659D01*
X0354200Y0066954D02*
X0354790Y0066364D01*
X0355380Y0066954D01*
X0355380Y0068134D01*
X0354200Y0068134D02*
X0354200Y0066954D01*
X0358170Y0066462D02*
X0358170Y0067642D01*
X0358465Y0067937D01*
X0359055Y0067937D01*
X0359350Y0067642D01*
X0359350Y0067052D02*
X0358760Y0067052D01*
X0359350Y0067052D02*
X0359350Y0066462D01*
X0359055Y0066167D01*
X0358465Y0066167D01*
X0358170Y0066462D01*
X0359983Y0066167D02*
X0359983Y0067937D01*
X0361163Y0066167D01*
X0361163Y0067937D01*
X0361795Y0067937D02*
X0362680Y0067937D01*
X0362975Y0067642D01*
X0362975Y0066462D01*
X0362680Y0066167D01*
X0361795Y0066167D01*
X0361795Y0067937D01*
X0361177Y0072761D02*
X0360587Y0072761D01*
X0360882Y0072761D02*
X0360882Y0074531D01*
X0356996Y0074040D02*
X0356996Y0072860D01*
X0356701Y0072565D01*
X0356111Y0072565D01*
X0355816Y0072860D01*
X0355816Y0074040D01*
X0356111Y0074335D01*
X0356701Y0074335D01*
X0356996Y0074040D01*
X0355183Y0072270D02*
X0354003Y0072270D01*
X0353371Y0072860D02*
X0353371Y0074040D01*
X0353076Y0074335D01*
X0352191Y0074335D01*
X0352191Y0072565D01*
X0353076Y0072565D01*
X0353371Y0072860D01*
X0343290Y0072761D02*
X0343290Y0074531D01*
X0342110Y0074531D02*
X0343290Y0072761D01*
X0342110Y0072761D02*
X0342110Y0074531D01*
X0341492Y0074531D02*
X0340902Y0074531D01*
X0340936Y0074335D02*
X0339756Y0074335D01*
X0340346Y0074335D02*
X0340346Y0072565D01*
X0340269Y0072466D02*
X0339089Y0072466D01*
X0338828Y0072565D02*
X0339123Y0072860D01*
X0339123Y0074335D01*
X0338457Y0074236D02*
X0338162Y0074531D01*
X0337277Y0074531D01*
X0337277Y0072761D01*
X0338162Y0072761D01*
X0338457Y0073056D01*
X0338457Y0074236D01*
X0337943Y0074335D02*
X0337943Y0072860D01*
X0338238Y0072565D01*
X0338828Y0072565D01*
X0338828Y0071283D02*
X0339123Y0070988D01*
X0339123Y0069808D01*
X0338828Y0069513D01*
X0338238Y0069513D01*
X0337943Y0069808D01*
X0337943Y0070988D01*
X0338238Y0071283D01*
X0338828Y0071283D01*
X0339756Y0071283D02*
X0339756Y0069808D01*
X0340051Y0069513D01*
X0340641Y0069513D01*
X0340936Y0069808D01*
X0340936Y0071283D01*
X0340902Y0071283D02*
X0341492Y0071283D01*
X0341568Y0071283D02*
X0342748Y0071283D01*
X0343290Y0071283D02*
X0343290Y0069513D01*
X0342110Y0071283D01*
X0342110Y0069513D01*
X0342158Y0069513D02*
X0342158Y0071283D01*
X0341197Y0071283D02*
X0341197Y0069513D01*
X0340902Y0069513D02*
X0341492Y0069513D01*
X0340269Y0069218D02*
X0339089Y0069218D01*
X0338457Y0069513D02*
X0337277Y0069513D01*
X0337277Y0071283D01*
X0336644Y0070988D02*
X0336349Y0071283D01*
X0335759Y0071283D01*
X0335464Y0070988D01*
X0335464Y0069808D01*
X0335759Y0069513D01*
X0336349Y0069513D01*
X0336644Y0069808D01*
X0336131Y0069218D02*
X0337311Y0069218D01*
X0335498Y0069513D02*
X0334318Y0069513D01*
X0334318Y0071283D01*
X0333686Y0070988D02*
X0333391Y0071283D01*
X0332801Y0071283D01*
X0332506Y0070988D01*
X0332506Y0069808D01*
X0332801Y0069513D01*
X0333391Y0069513D01*
X0333686Y0069808D01*
X0333882Y0068134D02*
X0332702Y0068134D01*
X0332702Y0067249D01*
X0333292Y0067544D01*
X0333587Y0067544D01*
X0333882Y0067249D01*
X0333882Y0066659D01*
X0333587Y0066364D01*
X0332997Y0066364D01*
X0332702Y0066659D01*
X0334515Y0066954D02*
X0335105Y0066364D01*
X0335695Y0066954D01*
X0335695Y0068134D01*
X0334515Y0068134D02*
X0334515Y0066954D01*
X0338485Y0066462D02*
X0338485Y0067642D01*
X0338780Y0067937D01*
X0339370Y0067937D01*
X0339665Y0067642D01*
X0339665Y0067052D02*
X0339075Y0067052D01*
X0339665Y0067052D02*
X0339665Y0066462D01*
X0339370Y0066167D01*
X0338780Y0066167D01*
X0338485Y0066462D01*
X0340298Y0066167D02*
X0340298Y0067937D01*
X0341478Y0066167D01*
X0341478Y0067937D01*
X0342110Y0067937D02*
X0342995Y0067937D01*
X0343290Y0067642D01*
X0343290Y0066462D01*
X0342995Y0066167D01*
X0342110Y0066167D01*
X0342110Y0067937D01*
X0341492Y0072761D02*
X0340902Y0072761D01*
X0341197Y0072761D02*
X0341197Y0074531D01*
X0337311Y0074040D02*
X0337311Y0072860D01*
X0337016Y0072565D01*
X0336426Y0072565D01*
X0336131Y0072860D01*
X0336131Y0074040D01*
X0336426Y0074335D01*
X0337016Y0074335D01*
X0337311Y0074040D01*
X0335498Y0072270D02*
X0334318Y0072270D01*
X0333686Y0072860D02*
X0333686Y0074040D01*
X0333391Y0074335D01*
X0332506Y0074335D01*
X0332506Y0072565D01*
X0333391Y0072565D01*
X0333686Y0072860D01*
X0323605Y0072761D02*
X0323605Y0074531D01*
X0322425Y0074531D02*
X0323605Y0072761D01*
X0322425Y0072761D02*
X0322425Y0074531D01*
X0321807Y0074531D02*
X0321217Y0074531D01*
X0321251Y0074335D02*
X0320071Y0074335D01*
X0320661Y0074335D02*
X0320661Y0072565D01*
X0320584Y0072466D02*
X0319404Y0072466D01*
X0319143Y0072565D02*
X0319438Y0072860D01*
X0319438Y0074335D01*
X0318772Y0074236D02*
X0318477Y0074531D01*
X0317592Y0074531D01*
X0317592Y0072761D01*
X0318477Y0072761D01*
X0318772Y0073056D01*
X0318772Y0074236D01*
X0318258Y0074335D02*
X0318258Y0072860D01*
X0318553Y0072565D01*
X0319143Y0072565D01*
X0319143Y0071283D02*
X0319438Y0070988D01*
X0319438Y0069808D01*
X0319143Y0069513D01*
X0318553Y0069513D01*
X0318258Y0069808D01*
X0318258Y0070988D01*
X0318553Y0071283D01*
X0319143Y0071283D01*
X0320071Y0071283D02*
X0320071Y0069808D01*
X0320366Y0069513D01*
X0320956Y0069513D01*
X0321251Y0069808D01*
X0321251Y0071283D01*
X0321217Y0071283D02*
X0321807Y0071283D01*
X0321883Y0071283D02*
X0323063Y0071283D01*
X0323605Y0071283D02*
X0323605Y0069513D01*
X0322425Y0071283D01*
X0322425Y0069513D01*
X0322473Y0069513D02*
X0322473Y0071283D01*
X0321512Y0071283D02*
X0321512Y0069513D01*
X0321217Y0069513D02*
X0321807Y0069513D01*
X0320584Y0069218D02*
X0319404Y0069218D01*
X0318772Y0069513D02*
X0317592Y0069513D01*
X0317592Y0071283D01*
X0316959Y0070988D02*
X0316664Y0071283D01*
X0316074Y0071283D01*
X0315779Y0070988D01*
X0315779Y0069808D01*
X0316074Y0069513D01*
X0316664Y0069513D01*
X0316959Y0069808D01*
X0316446Y0069218D02*
X0317626Y0069218D01*
X0315813Y0069513D02*
X0314633Y0069513D01*
X0314633Y0071283D01*
X0314000Y0070988D02*
X0313705Y0071283D01*
X0313115Y0071283D01*
X0312820Y0070988D01*
X0312820Y0069808D01*
X0313115Y0069513D01*
X0313705Y0069513D01*
X0314000Y0069808D01*
X0314197Y0068134D02*
X0313017Y0068134D01*
X0313017Y0067249D01*
X0313607Y0067544D01*
X0313902Y0067544D01*
X0314197Y0067249D01*
X0314197Y0066659D01*
X0313902Y0066364D01*
X0313312Y0066364D01*
X0313017Y0066659D01*
X0314830Y0066954D02*
X0315420Y0066364D01*
X0316010Y0066954D01*
X0316010Y0068134D01*
X0314830Y0068134D02*
X0314830Y0066954D01*
X0318800Y0066462D02*
X0318800Y0067642D01*
X0319095Y0067937D01*
X0319685Y0067937D01*
X0319980Y0067642D01*
X0319980Y0067052D02*
X0319390Y0067052D01*
X0319980Y0067052D02*
X0319980Y0066462D01*
X0319685Y0066167D01*
X0319095Y0066167D01*
X0318800Y0066462D01*
X0320613Y0066167D02*
X0320613Y0067937D01*
X0321793Y0066167D01*
X0321793Y0067937D01*
X0322425Y0067937D02*
X0323310Y0067937D01*
X0323605Y0067642D01*
X0323605Y0066462D01*
X0323310Y0066167D01*
X0322425Y0066167D01*
X0322425Y0067937D01*
X0321807Y0072761D02*
X0321217Y0072761D01*
X0321512Y0072761D02*
X0321512Y0074531D01*
X0317626Y0074040D02*
X0317331Y0074335D01*
X0316741Y0074335D01*
X0316446Y0074040D01*
X0316446Y0072860D01*
X0316741Y0072565D01*
X0317331Y0072565D01*
X0317626Y0072860D01*
X0317626Y0074040D01*
X0315813Y0072270D02*
X0314633Y0072270D01*
X0314000Y0072860D02*
X0314000Y0074040D01*
X0313705Y0074335D01*
X0312820Y0074335D01*
X0312820Y0072565D01*
X0313705Y0072565D01*
X0314000Y0072860D01*
X0303920Y0072761D02*
X0303920Y0074531D01*
X0302740Y0074531D02*
X0303920Y0072761D01*
X0302740Y0072761D02*
X0302740Y0074531D01*
X0302122Y0074531D02*
X0301532Y0074531D01*
X0301566Y0074335D02*
X0300386Y0074335D01*
X0300976Y0074335D02*
X0300976Y0072565D01*
X0300899Y0072466D02*
X0299719Y0072466D01*
X0299458Y0072565D02*
X0299753Y0072860D01*
X0299753Y0074335D01*
X0299087Y0074236D02*
X0298792Y0074531D01*
X0297907Y0074531D01*
X0297907Y0072761D01*
X0298792Y0072761D01*
X0299087Y0073056D01*
X0299087Y0074236D01*
X0298573Y0074335D02*
X0298573Y0072860D01*
X0298868Y0072565D01*
X0299458Y0072565D01*
X0299458Y0071283D02*
X0299753Y0070988D01*
X0299753Y0069808D01*
X0299458Y0069513D01*
X0298868Y0069513D01*
X0298573Y0069808D01*
X0298573Y0070988D01*
X0298868Y0071283D01*
X0299458Y0071283D01*
X0300386Y0071283D02*
X0300386Y0069808D01*
X0300681Y0069513D01*
X0301271Y0069513D01*
X0301566Y0069808D01*
X0301566Y0071283D01*
X0301532Y0071283D02*
X0302122Y0071283D01*
X0302198Y0071283D02*
X0303378Y0071283D01*
X0303920Y0071283D02*
X0303920Y0069513D01*
X0302740Y0071283D01*
X0302740Y0069513D01*
X0302788Y0069513D02*
X0302788Y0071283D01*
X0301827Y0071283D02*
X0301827Y0069513D01*
X0301532Y0069513D02*
X0302122Y0069513D01*
X0300899Y0069218D02*
X0299719Y0069218D01*
X0299087Y0069513D02*
X0297907Y0069513D01*
X0297907Y0071283D01*
X0297274Y0070988D02*
X0296979Y0071283D01*
X0296389Y0071283D01*
X0296094Y0070988D01*
X0296094Y0069808D01*
X0296389Y0069513D01*
X0296979Y0069513D01*
X0297274Y0069808D01*
X0296761Y0069218D02*
X0297941Y0069218D01*
X0296128Y0069513D02*
X0294948Y0069513D01*
X0294948Y0071283D01*
X0294315Y0070988D02*
X0294020Y0071283D01*
X0293430Y0071283D01*
X0293135Y0070988D01*
X0293135Y0069808D01*
X0293430Y0069513D01*
X0294020Y0069513D01*
X0294315Y0069808D01*
X0294512Y0068134D02*
X0293332Y0068134D01*
X0293332Y0067249D01*
X0293922Y0067544D01*
X0294217Y0067544D01*
X0294512Y0067249D01*
X0294512Y0066659D01*
X0294217Y0066364D01*
X0293627Y0066364D01*
X0293332Y0066659D01*
X0295145Y0066954D02*
X0295735Y0066364D01*
X0296325Y0066954D01*
X0296325Y0068134D01*
X0295145Y0068134D02*
X0295145Y0066954D01*
X0299115Y0066462D02*
X0299115Y0067642D01*
X0299410Y0067937D01*
X0300000Y0067937D01*
X0300295Y0067642D01*
X0300295Y0067052D02*
X0299705Y0067052D01*
X0300295Y0067052D02*
X0300295Y0066462D01*
X0300000Y0066167D01*
X0299410Y0066167D01*
X0299115Y0066462D01*
X0300928Y0066167D02*
X0300928Y0067937D01*
X0302108Y0066167D01*
X0302108Y0067937D01*
X0302740Y0067937D02*
X0303625Y0067937D01*
X0303920Y0067642D01*
X0303920Y0066462D01*
X0303625Y0066167D01*
X0302740Y0066167D01*
X0302740Y0067937D01*
X0302122Y0072761D02*
X0301532Y0072761D01*
X0301827Y0072761D02*
X0301827Y0074531D01*
X0297941Y0074040D02*
X0297646Y0074335D01*
X0297056Y0074335D01*
X0296761Y0074040D01*
X0296761Y0072860D01*
X0297056Y0072565D01*
X0297646Y0072565D01*
X0297941Y0072860D01*
X0297941Y0074040D01*
X0296128Y0072270D02*
X0294948Y0072270D01*
X0294315Y0072860D02*
X0294315Y0074040D01*
X0294020Y0074335D01*
X0293135Y0074335D01*
X0293135Y0072565D01*
X0294020Y0072565D01*
X0294315Y0072860D01*
X0284235Y0072761D02*
X0284235Y0074531D01*
X0283055Y0074531D02*
X0284235Y0072761D01*
X0283055Y0072761D02*
X0283055Y0074531D01*
X0282437Y0074531D02*
X0281847Y0074531D01*
X0281881Y0074335D02*
X0280701Y0074335D01*
X0281291Y0074335D02*
X0281291Y0072565D01*
X0281214Y0072466D02*
X0280034Y0072466D01*
X0279773Y0072565D02*
X0280068Y0072860D01*
X0280068Y0074335D01*
X0279402Y0074236D02*
X0279107Y0074531D01*
X0278222Y0074531D01*
X0278222Y0072761D01*
X0279107Y0072761D01*
X0279402Y0073056D01*
X0279402Y0074236D01*
X0278888Y0074335D02*
X0278888Y0072860D01*
X0279183Y0072565D01*
X0279773Y0072565D01*
X0279773Y0071283D02*
X0280068Y0070988D01*
X0280068Y0069808D01*
X0279773Y0069513D01*
X0279183Y0069513D01*
X0278888Y0069808D01*
X0278888Y0070988D01*
X0279183Y0071283D01*
X0279773Y0071283D01*
X0280701Y0071283D02*
X0280701Y0069808D01*
X0280996Y0069513D01*
X0281586Y0069513D01*
X0281881Y0069808D01*
X0281881Y0071283D01*
X0281847Y0071283D02*
X0282437Y0071283D01*
X0282513Y0071283D02*
X0283693Y0071283D01*
X0284235Y0071283D02*
X0284235Y0069513D01*
X0283055Y0071283D01*
X0283055Y0069513D01*
X0283103Y0069513D02*
X0283103Y0071283D01*
X0282142Y0071283D02*
X0282142Y0069513D01*
X0281847Y0069513D02*
X0282437Y0069513D01*
X0281214Y0069218D02*
X0280034Y0069218D01*
X0279402Y0069513D02*
X0278222Y0069513D01*
X0278222Y0071283D01*
X0277589Y0070988D02*
X0277294Y0071283D01*
X0276704Y0071283D01*
X0276409Y0070988D01*
X0276409Y0069808D01*
X0276704Y0069513D01*
X0277294Y0069513D01*
X0277589Y0069808D01*
X0277076Y0069218D02*
X0278256Y0069218D01*
X0276443Y0069513D02*
X0275263Y0069513D01*
X0275263Y0071283D01*
X0274630Y0070988D02*
X0274335Y0071283D01*
X0273745Y0071283D01*
X0273450Y0070988D01*
X0273450Y0069808D01*
X0273745Y0069513D01*
X0274335Y0069513D01*
X0274630Y0069808D01*
X0274827Y0068134D02*
X0273647Y0068134D01*
X0273647Y0067249D01*
X0274237Y0067544D01*
X0274532Y0067544D01*
X0274827Y0067249D01*
X0274827Y0066659D01*
X0274532Y0066364D01*
X0273942Y0066364D01*
X0273647Y0066659D01*
X0275460Y0066954D02*
X0276050Y0066364D01*
X0276640Y0066954D01*
X0276640Y0068134D01*
X0275460Y0068134D02*
X0275460Y0066954D01*
X0279430Y0066462D02*
X0279430Y0067642D01*
X0279725Y0067937D01*
X0280315Y0067937D01*
X0280610Y0067642D01*
X0280610Y0067052D02*
X0280020Y0067052D01*
X0280610Y0067052D02*
X0280610Y0066462D01*
X0280315Y0066167D01*
X0279725Y0066167D01*
X0279430Y0066462D01*
X0281243Y0066167D02*
X0281243Y0067937D01*
X0282423Y0066167D01*
X0282423Y0067937D01*
X0283055Y0067937D02*
X0283055Y0066167D01*
X0283940Y0066167D01*
X0284235Y0066462D01*
X0284235Y0067642D01*
X0283940Y0067937D01*
X0283055Y0067937D01*
X0282437Y0072761D02*
X0281847Y0072761D01*
X0282142Y0072761D02*
X0282142Y0074531D01*
X0278256Y0074040D02*
X0277961Y0074335D01*
X0277371Y0074335D01*
X0277076Y0074040D01*
X0277076Y0072860D01*
X0277371Y0072565D01*
X0277961Y0072565D01*
X0278256Y0072860D01*
X0278256Y0074040D01*
X0276443Y0072270D02*
X0275263Y0072270D01*
X0274630Y0072860D02*
X0274630Y0074040D01*
X0274335Y0074335D01*
X0273450Y0074335D01*
X0273450Y0072565D01*
X0274335Y0072565D01*
X0274630Y0072860D01*
X0264550Y0072761D02*
X0264550Y0074531D01*
X0263370Y0074531D02*
X0264550Y0072761D01*
X0263370Y0072761D02*
X0263370Y0074531D01*
X0262752Y0074531D02*
X0262162Y0074531D01*
X0262196Y0074335D02*
X0261016Y0074335D01*
X0261606Y0074335D02*
X0261606Y0072565D01*
X0261529Y0072466D02*
X0260349Y0072466D01*
X0260088Y0072565D02*
X0260383Y0072860D01*
X0260383Y0074335D01*
X0259717Y0074236D02*
X0259422Y0074531D01*
X0258537Y0074531D01*
X0258537Y0072761D01*
X0259422Y0072761D01*
X0259717Y0073056D01*
X0259717Y0074236D01*
X0259203Y0074335D02*
X0259203Y0072860D01*
X0259498Y0072565D01*
X0260088Y0072565D01*
X0260088Y0071283D02*
X0260383Y0070988D01*
X0260383Y0069808D01*
X0260088Y0069513D01*
X0259498Y0069513D01*
X0259203Y0069808D01*
X0259203Y0070988D01*
X0259498Y0071283D01*
X0260088Y0071283D01*
X0261016Y0071283D02*
X0261016Y0069808D01*
X0261311Y0069513D01*
X0261901Y0069513D01*
X0262196Y0069808D01*
X0262196Y0071283D01*
X0262162Y0071283D02*
X0262752Y0071283D01*
X0262828Y0071283D02*
X0264008Y0071283D01*
X0264550Y0071283D02*
X0264550Y0069513D01*
X0263370Y0071283D01*
X0263370Y0069513D01*
X0263418Y0069513D02*
X0263418Y0071283D01*
X0262457Y0071283D02*
X0262457Y0069513D01*
X0262162Y0069513D02*
X0262752Y0069513D01*
X0261529Y0069218D02*
X0260349Y0069218D01*
X0259717Y0069513D02*
X0258537Y0069513D01*
X0258537Y0071283D01*
X0257904Y0070988D02*
X0257609Y0071283D01*
X0257019Y0071283D01*
X0256724Y0070988D01*
X0256724Y0069808D01*
X0257019Y0069513D01*
X0257609Y0069513D01*
X0257904Y0069808D01*
X0257390Y0069218D02*
X0258570Y0069218D01*
X0256758Y0069513D02*
X0255578Y0069513D01*
X0255578Y0071283D01*
X0254945Y0070988D02*
X0254650Y0071283D01*
X0254060Y0071283D01*
X0253765Y0070988D01*
X0253765Y0069808D01*
X0254060Y0069513D01*
X0254650Y0069513D01*
X0254945Y0069808D01*
X0255142Y0068134D02*
X0253962Y0068134D01*
X0253962Y0067249D01*
X0254552Y0067544D01*
X0254847Y0067544D01*
X0255142Y0067249D01*
X0255142Y0066659D01*
X0254847Y0066364D01*
X0254257Y0066364D01*
X0253962Y0066659D01*
X0255775Y0066954D02*
X0256365Y0066364D01*
X0256955Y0066954D01*
X0256955Y0068134D01*
X0255775Y0068134D02*
X0255775Y0066954D01*
X0259745Y0066462D02*
X0259745Y0067642D01*
X0260040Y0067937D01*
X0260630Y0067937D01*
X0260925Y0067642D01*
X0260925Y0067052D02*
X0260335Y0067052D01*
X0260925Y0067052D02*
X0260925Y0066462D01*
X0260630Y0066167D01*
X0260040Y0066167D01*
X0259745Y0066462D01*
X0261558Y0066167D02*
X0261558Y0067937D01*
X0262738Y0066167D01*
X0262738Y0067937D01*
X0263370Y0067937D02*
X0263370Y0066167D01*
X0264255Y0066167D01*
X0264550Y0066462D01*
X0264550Y0067642D01*
X0264255Y0067937D01*
X0263370Y0067937D01*
X0262752Y0072761D02*
X0262162Y0072761D01*
X0262457Y0072761D02*
X0262457Y0074531D01*
X0258570Y0074040D02*
X0258275Y0074335D01*
X0257685Y0074335D01*
X0257390Y0074040D01*
X0257390Y0072860D01*
X0257685Y0072565D01*
X0258275Y0072565D01*
X0258570Y0072860D01*
X0258570Y0074040D01*
X0256758Y0072270D02*
X0255578Y0072270D01*
X0254945Y0072860D02*
X0254945Y0074040D01*
X0254650Y0074335D01*
X0253765Y0074335D01*
X0253765Y0072565D01*
X0254650Y0072565D01*
X0254945Y0072860D01*
X0244865Y0072761D02*
X0244865Y0074531D01*
X0243685Y0074531D02*
X0244865Y0072761D01*
X0243685Y0072761D02*
X0243685Y0074531D01*
X0243067Y0074531D02*
X0242477Y0074531D01*
X0242772Y0074531D02*
X0242772Y0072761D01*
X0242477Y0072761D02*
X0243067Y0072761D01*
X0241844Y0072466D02*
X0240664Y0072466D01*
X0240032Y0073056D02*
X0240032Y0074236D01*
X0239737Y0074531D01*
X0238852Y0074531D01*
X0238852Y0072761D01*
X0239737Y0072761D01*
X0240032Y0073056D01*
X0238852Y0071283D02*
X0238852Y0069513D01*
X0240032Y0069513D01*
X0240664Y0069218D02*
X0241844Y0069218D01*
X0242477Y0069513D02*
X0243067Y0069513D01*
X0242772Y0069513D02*
X0242772Y0071283D01*
X0242477Y0071283D02*
X0243067Y0071283D01*
X0243685Y0071283D02*
X0244865Y0069513D01*
X0244865Y0071283D01*
X0243685Y0071283D02*
X0243685Y0069513D01*
X0243685Y0067937D02*
X0244570Y0067937D01*
X0244865Y0067642D01*
X0244865Y0066462D01*
X0244570Y0066167D01*
X0243685Y0066167D01*
X0243685Y0067937D01*
X0243052Y0067937D02*
X0243052Y0066167D01*
X0241872Y0067937D01*
X0241872Y0066167D01*
X0241240Y0066462D02*
X0241240Y0067052D01*
X0240650Y0067052D01*
X0241240Y0067642D02*
X0240945Y0067937D01*
X0240355Y0067937D01*
X0240060Y0067642D01*
X0240060Y0066462D01*
X0240355Y0066167D01*
X0240945Y0066167D01*
X0241240Y0066462D01*
X0237924Y0069513D02*
X0238219Y0069808D01*
X0237924Y0069513D02*
X0237334Y0069513D01*
X0237039Y0069808D01*
X0237039Y0070988D01*
X0237334Y0071283D01*
X0237924Y0071283D01*
X0238219Y0070988D01*
D15*
X0079693Y0049729D02*
X0079693Y0045125D01*
X0076624Y0049729D01*
X0076624Y0045125D01*
X0075089Y0045125D02*
X0073554Y0045125D01*
X0074322Y0045125D02*
X0074322Y0049729D01*
X0075089Y0049729D02*
X0073554Y0049729D01*
X0072020Y0047427D02*
X0068950Y0047427D01*
X0067416Y0045125D02*
X0067416Y0049729D01*
X0064346Y0049729D02*
X0067416Y0045125D01*
X0064346Y0045125D02*
X0064346Y0049729D01*
X0062812Y0048962D02*
X0062044Y0049729D01*
X0060510Y0049729D01*
X0059743Y0048962D01*
X0059743Y0045893D01*
X0060510Y0045125D01*
X0062044Y0045125D01*
X0062812Y0045893D01*
X0056071Y0045125D02*
X0056071Y0049729D01*
X0053002Y0049729D02*
X0056071Y0045125D01*
X0053002Y0045125D02*
X0053002Y0049729D01*
X0051467Y0049729D02*
X0049932Y0049729D01*
X0050700Y0049729D02*
X0050700Y0045125D01*
X0051467Y0045125D02*
X0049932Y0045125D01*
X0048398Y0046660D02*
X0046863Y0045125D01*
X0045328Y0046660D01*
X0045328Y0049729D01*
X0048398Y0049729D02*
X0048398Y0046660D01*
X0056522Y0065255D02*
X0058057Y0065255D01*
X0058824Y0066022D01*
X0060359Y0065255D02*
X0063428Y0065255D01*
X0061894Y0065255D02*
X0061894Y0069859D01*
X0060359Y0068324D01*
X0058824Y0069092D02*
X0058057Y0069859D01*
X0056522Y0069859D01*
X0055755Y0069092D01*
X0055755Y0066022D01*
X0056522Y0065255D01*
X0058022Y0074598D02*
X0059557Y0074598D01*
X0060324Y0075365D01*
X0061859Y0075365D02*
X0062626Y0074598D01*
X0064161Y0074598D01*
X0064928Y0075365D01*
X0064928Y0076132D01*
X0064161Y0076900D01*
X0063394Y0076900D01*
X0064161Y0076900D02*
X0064928Y0077667D01*
X0064928Y0078434D01*
X0064161Y0079202D01*
X0062626Y0079202D01*
X0061859Y0078434D01*
X0060324Y0078434D02*
X0059557Y0079202D01*
X0058022Y0079202D01*
X0057255Y0078434D01*
X0057255Y0075365D01*
X0058022Y0074598D01*
X0058057Y0084940D02*
X0058824Y0085707D01*
X0058057Y0084940D02*
X0056522Y0084940D01*
X0055755Y0085707D01*
X0055755Y0088777D01*
X0056522Y0089544D01*
X0058057Y0089544D01*
X0058824Y0088777D01*
X0060359Y0088777D02*
X0061126Y0089544D01*
X0062661Y0089544D01*
X0063428Y0088777D01*
X0063428Y0088009D01*
X0060359Y0084940D01*
X0063428Y0084940D01*
D16*
X0065313Y0042053D02*
X0065313Y0038784D01*
X0066947Y0040419D02*
X0063678Y0040419D01*
X0071217Y0039631D02*
X0074487Y0039631D01*
X0050865Y0039631D02*
X0047595Y0039631D01*
X0043325Y0040419D02*
X0040056Y0040419D01*
X0041691Y0042053D02*
X0041691Y0038784D01*
M02*
